<svg width="24" height="24" viewBox="0 0 24 24" fill="none" xmlns="http://www.w3.org/2000/svg">
<path d="M22.1949 0H1.36625C0.647285 0 0.0644531 0.596954 0.0644531 1.33333V22.6667C0.0644531 23.403 0.647285 24 1.36625 24H22.1949C22.9139 24 23.4967 23.403 23.4967 22.6667V1.33333C23.4967 0.596954 22.9139 0 22.1949 0Z" fill="#191619"/>
<path fill-rule="evenodd" clip-rule="evenodd" d="M17.7882 18.0834C16.1596 19.3344 13.7982 20 11.7651 20C8.9158 20 6.34964 18.9034 4.40769 17.078C4.25505 16.9347 4.39142 16.739 4.57432 16.85C6.66955 18.119 9.26012 18.8834 11.936 18.8834C13.7412 18.8834 15.7255 18.4934 17.5512 17.6874C17.8266 17.5657 18.0576 17.8764 17.7882 18.0834ZM18.4657 16.9547C18.2575 16.677 17.0888 16.823 16.5638 16.8887C16.4047 16.9087 16.3799 16.764 16.5235 16.659C17.4556 15.9774 18.9832 16.1744 19.1606 16.4024C19.3396 16.6327 19.114 18.227 18.2402 18.9877C18.1058 19.1047 17.9779 19.0424 18.0375 18.8877C18.234 18.3767 18.6744 17.2324 18.4657 16.9547Z" fill="#FF9900"/>
<path fill-rule="evenodd" clip-rule="evenodd" d="M14.4418 14.8167C14.3279 14.9227 14.1642 14.93 14.0363 14.8583C13.4658 14.365 13.364 14.137 13.0522 13.6673C12.11 14.6667 11.4425 14.9667 10.2218 14.9667C8.77644 14.9667 7.65234 14.0383 7.65234 12.1813C7.65234 10.7307 8.40738 9.74466 9.48331 9.26066C10.4147 8.83533 11.7156 8.758 12.7108 8.64166V8.40966C12.7108 7.984 12.7433 7.48133 12.5025 7.11366C12.2936 6.785 11.892 6.64966 11.5388 6.64966C10.884 6.64966 10.3018 6.99866 10.1589 7.723C10.129 7.88366 10.0164 8.043 9.86051 8.051L8.19682 7.86366C8.05622 7.83033 7.90001 7.71366 7.94069 7.49033C8.32309 5.38866 10.1459 4.75366 11.7793 4.75366C12.6148 4.75366 13.7067 4.986 14.3654 5.64366C15.2001 6.456 15.1201 7.53933 15.1201 8.71933V11.5033C15.1201 12.3407 15.454 12.708 15.7677 13.1593C15.8774 13.322 15.9021 13.5153 15.7625 13.634C15.3191 14.0243 14.8801 14.4199 14.4457 14.8207L14.4418 14.8173V14.8167ZM12.7108 10.46C12.7108 11.1567 12.7271 11.7367 12.3899 12.3553C12.1168 12.8587 11.6837 13.1677 11.2014 13.1677C10.543 13.1677 10.1576 12.6453 10.1576 11.8717C10.1576 10.3497 11.4692 10.073 12.7108 10.073V10.46Z" fill="white"/>
</svg>
