<svg width="181" height="313" viewBox="0 0 181 313" fill="none" xmlns="http://www.w3.org/2000/svg">
<g clip-path="url(#clip0_189_730)">
<path d="M203.06 162.911C203.06 162.911 221.201 142.436 235.771 129.505C236.651 128.571 237.386 127.911 237.817 127.09C239.127 125.336 240.437 123.582 241.585 121.395C245.604 113.738 241.135 97.7883 234.424 94.2653C226.187 89.9416 212.514 90.7866 201.872 92.5259C199.773 92.8191 197.943 91.8583 196.991 89.9638C192.684 80.3779 186.224 68.9639 177.072 64.1599C170.36 60.6369 154.695 66.0174 150.676 73.6743C147.948 78.8701 146.71 83.4524 146.818 87.6948C144.271 105.891 138.35 127.549 138.081 128.803C122.236 133.042 49.8324 203.517 49.8324 203.517C49.8324 203.517 52.722 216.544 80.6267 236.773L82.2237 234.472L88.1994 238.655L86.6024 240.956C93.7984 245.78 102.358 250.971 112.73 256.415C123.103 261.86 132.236 265.957 140.294 269.14L141.281 266.519L148.118 269.061L147.131 271.682C179.79 283.594 191.992 278.139 191.992 278.139C191.992 278.139 208.39 177.22 203.06 162.911Z" fill="#213A8F" fill-opacity="0.06"/>
<path d="M168.14 150.859C145.565 139.009 136.772 130.557 136.305 129.963C134.457 128.295 138.943 121.232 140.791 122.9C140.791 122.9 150.805 131.993 172.159 143.202C193.514 154.412 205.626 157.282 205.626 157.282C208.049 157.856 205.232 165.446 202.666 165.146C202.361 164.986 191.02 162.869 168.14 150.859ZM136.253 169.351C133.813 168.07 80.7712 236.499 80.7712 236.499L86.8904 240.409C86.8904 240.409 138.694 170.632 136.253 169.351ZM171.03 187.607C173.471 188.888 147.275 271.409 147.275 271.409L140.582 268.593C140.582 268.593 168.59 186.325 171.03 187.607ZM235.645 94.9058L243.397 80.1389C244.545 77.9512 247.237 77.2713 249.677 78.5523C252.118 79.8334 253.087 82.435 251.938 84.6227L241.46 104.585C240.149 100.41 238.104 96.8939 235.645 94.9058ZM165.032 64.118L175.367 44.4288C176.516 42.2411 179.207 41.5612 181.648 42.8422C184.088 44.1233 185.057 46.7249 183.909 48.9126L176.158 63.6795C173.269 62.5117 168.908 62.6644 165.032 64.118Z" fill="#213A8F" fill-opacity="0.06"/>
</g>
<defs>
<clipPath id="clip0_189_730">
<rect width="248.068" height="222.37" fill="white" transform="translate(103.354) rotate(27.696)"/>
</clipPath>
</defs>
</svg>
