<svg width="369" height="390" viewBox="0 0 369 390" fill="none" xmlns="http://www.w3.org/2000/svg">
<path d="M281.55 185.335C257.484 136.542 214.507 84.9711 163.095 41.1948C156.981 34.9382 154.754 34.2146 153.717 33.5335L139.035 47.7237C142.365 49.9187 156.552 65.9154 159.347 70.8103C188.236 121.413 183.453 182.327 171.666 228.791C158.318 225.532 144.163 226.875 131.727 233.714C104.11 248.902 95.4516 285.265 112.388 314.931C129.333 344.613 165.453 356.351 193.069 341.163C220.686 325.976 229.352 289.608 212.406 259.926C206.751 250.02 198.921 242.161 190.017 236.589C199.159 193.833 201.984 140.97 188.225 93.0379C221.529 125.041 245.839 157.508 260.933 190.211C259.775 190.739 258.608 191.249 257.483 191.868C229.866 207.056 221.2 243.424 238.141 273.097C255.082 302.771 291.209 314.504 318.825 299.317C346.441 284.13 355.1 247.766 338.159 218.092C325.866 196.559 303.483 184.536 281.55 185.335ZM142.734 290.222C135.888 293.987 126.937 291.085 122.734 283.722C118.54 276.377 120.687 267.361 127.533 263.596C134.38 259.831 143.343 262.736 147.536 270.082C151.739 277.445 149.58 286.457 142.734 290.222ZM273.878 253.095C266.292 257.267 256.371 254.051 251.714 245.893C247.066 237.752 249.446 227.759 257.032 223.587C264.618 219.415 274.536 222.645 279.184 230.786C283.841 238.943 281.465 248.923 273.878 253.095Z" fill="#A50716" fill-opacity="0.05"/>
</svg>
