<svg width="293" height="556" viewBox="0 0 293 556" fill="none" xmlns="http://www.w3.org/2000/svg">
<g clip-path="url(#clip0_189_740)">
<path d="M362.288 451.888L318.034 380.363C316.753 378.293 314.311 377.409 311.868 378.129L311.626 378.2C300.257 381.548 280.793 386.809 264.031 370.486C249.845 356.671 252.232 301.509 255.053 249.925C256.903 216.087 258.815 181.097 256.753 151.158C253.53 104.37 246.883 78.6873 246.601 77.6173C246.127 75.8158 244.878 74.4352 243.2 73.8609C241.523 73.2871 239.6 73.5839 237.97 74.666L216.63 88.8435C214.179 90.4713 212.895 93.5323 213.504 96.281C213.542 96.4522 217.289 113.682 218.114 144.512C218.789 169.757 217.563 208.972 208.786 258.316C184.737 201.713 162.904 159.821 152.739 142.489C151.842 140.962 150.301 140.016 148.53 139.908C146.759 139.8 144.942 140.538 143.571 141.926L123.248 162.485C123.231 162.502 122.631 163.135 122.243 163.749C114.62 175.821 105.176 196.375 93.2191 222.395C81.6764 247.514 67.3124 278.774 50.2004 311.774C46.9361 318.069 48.438 325.318 53.6932 328.636L59.424 332.255C65.0308 335.795 72.8673 333.488 76.8936 327.112L143.629 221.427C154.024 248.313 165.812 283.053 173.445 318.766C192.165 406.357 220.504 433.968 243.102 448.238C295.866 481.556 348.603 490.359 350.822 490.717C353.26 491.11 355.85 489.826 357.323 487.494L361.173 481.396C367.117 471.982 367.555 460.4 362.288 451.888ZM226.227 96.7766L236.582 89.8971C238.759 100.601 242.523 122.385 244.669 153.544C246.676 182.667 244.787 217.237 242.959 250.669C241.134 284.056 239.451 314.872 241.485 338.712C238.643 332.921 235.831 326.403 233.071 319.046C227.741 304.838 222.369 291.177 217.051 278.155C237.524 179.189 229.262 114.398 226.227 96.7766ZM67.0539 320.898C66.9238 321.104 66.6718 321.178 66.4908 321.063L60.76 317.445C60.6035 317.346 60.5653 317.092 60.6765 316.879C64.0666 310.342 67.3436 303.88 70.5167 297.518L78.5956 302.62L67.0539 320.898ZM85.661 291.431L76.4033 285.585C86.9118 264.058 96.1161 244.032 104.006 226.862C112.777 207.777 120.167 191.693 126.303 180.099C129.289 186.659 133.514 196.251 138.316 208.044L85.661 291.431ZM349.998 477.297C336.813 474.593 293.031 464.114 250.167 437.048C229.327 423.888 203.119 398.08 185.279 314.605C170.986 247.729 142.451 184.313 134.628 167.637L145.765 156.37C156.23 175.303 188.414 236.084 221.734 324.909C235.01 360.3 251.759 382.434 271.516 390.693C286.479 396.95 300.295 394.225 309.77 391.604L351.917 459.725C354.676 464.184 354.446 470.251 351.333 475.181L349.997 477.297L349.998 477.297Z" fill="#0ACF83" fill-opacity="0.03"/>
</g>
<defs>
<clipPath id="clip0_189_740">
<rect width="371.621" height="422.618" fill="white" transform="translate(225.643) rotate(32.2705)"/>
</clipPath>
</defs>
</svg>
