<svg width="224" height="237" viewBox="0 0 224 237" fill="none" xmlns="http://www.w3.org/2000/svg">
<g clip-path="url(#clip0_189_697)">
<path d="M198.945 130.489L161.532 127.739C160.449 127.66 159.49 128.31 159.11 129.381L159.073 129.486C157.304 134.468 154.108 142.874 143.825 144.652C135.122 146.157 115.83 130.85 97.9425 116.325C86.2091 106.796 74.0759 96.9437 62.726 89.8489C44.988 78.7614 33.974 74.4364 33.514 74.2579C32.7395 73.9572 31.9139 74.0468 31.2672 74.5023C30.6208 74.9576 30.2244 75.7297 30.1882 76.6017L29.7196 88.0191C29.6656 89.3304 30.4346 90.5954 31.5865 91.0954C31.6582 91.1266 38.8608 94.2853 50.2083 102.06C59.5004 108.427 73.339 119.138 88.8575 135.228C62.1222 129.09 41.2795 126.003 32.3595 125.136C31.5736 125.059 30.8286 125.368 30.3256 125.979C29.8227 126.59 29.6135 127.44 29.7557 128.299L31.8573 141.02C31.859 141.03 31.9306 141.413 32.0508 141.714C34.4136 147.627 39.3619 156.419 45.6263 167.55C51.6736 178.295 59.1996 191.667 66.6339 206.486C68.0521 209.313 71.0628 210.669 73.6371 209.641L76.4443 208.519C79.1908 207.422 80.4098 203.988 79.1618 200.865L58.4765 149.095C70.9062 152.381 86.5365 157.222 101.43 163.817C137.959 179.994 155.349 176.991 166.418 172.568C192.265 162.241 209.252 145.504 209.963 144.796C210.743 144.019 210.958 142.748 210.501 141.605L209.308 138.618C207.465 134.007 203.398 130.816 198.945 130.489ZM35.0969 86.6313L35.3243 81.0911C39.7592 83.1077 48.6103 87.4527 60.4229 94.8368C71.4643 101.738 83.4516 111.472 95.0445 120.886C106.622 130.288 117.308 138.965 126.448 144.472C123.613 143.983 120.524 143.291 117.145 142.361C110.619 140.565 104.279 138.928 98.1847 137.438C67.8121 104.132 42.2542 90.1494 35.0969 86.6313ZM74.3415 202.79C74.3818 202.891 74.3425 203.001 74.2539 203.037L71.4466 204.159C71.37 204.189 71.2684 204.137 71.2207 204.041C69.7478 201.105 68.2726 198.229 66.8065 195.418L70.764 193.837L74.3415 202.79ZM68.574 188.356L64.039 190.168C59.0182 180.737 54.1974 172.169 50.0637 164.825C45.4692 156.66 41.5968 149.78 39.0172 144.529C42.1678 145.169 46.7374 146.155 52.2529 147.509L68.574 188.356ZM204.902 141.58C200.473 145.633 185.225 158.697 164.228 167.087C154.02 171.166 137.838 173.871 103.026 158.455C75.1367 146.104 44.7674 139.802 36.6975 138.26L35.5456 131.289C45.1218 132.467 75.4954 136.762 116.293 147.99C132.548 152.463 144.925 152.212 153.081 147.241C159.258 143.476 161.892 137.774 163.427 133.667L199.059 136.286C201.392 136.457 203.522 138.129 204.487 140.544L204.901 141.58L204.902 141.58Z" fill="#9E0C26" fill-opacity="0.03"/>
</g>
<defs>
<clipPath id="clip0_189_697">
<rect width="165.752" height="188.498" fill="white" transform="translate(0 61.501) rotate(-21.7799)"/>
</clipPath>
</defs>
</svg>
