<svg width="208" height="219" viewBox="0 0 208 219" fill="none" xmlns="http://www.w3.org/2000/svg">
<path d="M137.214 152.001C154.009 126.545 166.67 91.4057 173.085 54.5676C174.359 49.8815 174.066 48.6263 174.097 47.9417L162.921 45.1658C162.817 47.3659 159.139 58.6681 157.564 61.4002C141.287 89.6448 110.214 105.073 84.1502 113.02C81.8648 105.808 77.1029 99.5521 70.1611 95.6978C54.7459 87.139 34.5122 93.6244 24.9698 110.183C15.422 126.751 20.1832 147.114 35.5985 155.672C51.0137 164.231 71.2515 157.748 80.7992 141.18C83.9855 135.652 85.5436 129.695 85.675 123.898C109.164 115.785 135.746 101.774 155.112 81.4072C149.18 106.328 140.412 127.161 128.855 143.736C128.262 143.346 127.674 142.946 127.046 142.597C111.631 134.038 91.3931 140.521 81.8481 157.084C72.3031 173.647 77.0687 194.013 92.4836 202.571C107.899 211.13 128.133 204.645 137.678 188.082C144.604 176.063 143.968 162.066 137.214 152.001ZM45.8174 117.261C41.9959 115.139 40.8127 110.095 43.1811 105.985C45.544 101.885 50.5606 100.277 54.3821 102.399C58.2036 104.521 59.3885 109.572 57.0256 113.672C54.6571 117.781 49.6389 119.383 45.8174 117.261ZM101.966 168.059C97.7314 165.708 96.4203 160.117 99.0444 155.563C101.663 151.019 107.223 149.237 111.458 151.588C115.693 153.939 116.997 159.533 114.378 164.077C111.754 168.63 106.201 170.41 101.966 168.059Z" fill="#A50716" fill-opacity="0.03"/>
</svg>
