<svg width="194" height="271" viewBox="0 0 194 271" fill="none" xmlns="http://www.w3.org/2000/svg">
<g clip-path="url(#clip0_189_714)">
<path d="M140.76 178.295C140.729 177.525 140.866 176.786 141.154 176.111C141.442 175.435 141.88 174.824 142.457 174.313L157.71 160.754C159.027 159.583 160.014 158.203 160.652 156.699C162.43 152.535 161.576 147.423 158.069 143.11L143.445 125.138C142.343 123.784 141.798 122.191 141.919 120.68L143.512 100.63C144.009 94.3142 139.423 87.8704 132.388 84.8715C132.125 84.7591 131.859 84.6515 131.587 84.5489L108.775 75.8923L108.378 75.7312C106.793 75.0554 105.444 73.9665 104.548 72.6385L91.8694 53.7669C89.8064 50.6888 86.7164 48.2655 83.2495 46.7904C79.7818 45.3092 75.8938 44.7577 72.2379 45.4006L49.8471 49.3182C48.2717 49.5932 46.5491 49.3722 44.9637 48.6964L44.6091 48.537L22.4253 38.0061L22.5639 38.0733C22.2611 37.9254 21.9873 37.8059 21.7464 37.7032C14.7123 34.7044 6.88723 35.8572 2.67481 40.5888L-10.6887 55.6208C-11.695 56.7548 -13.2211 57.4645 -14.9613 57.6067L-38.0542 59.5002C-43.5946 59.956 -47.8781 62.8805 -49.6506 67.0464C-50.2905 68.5475 -50.6053 70.2142 -50.5407 71.9723L-49.7576 92.3698C-49.7271 93.1398 -49.8645 93.879 -50.1523 94.5542C-50.4391 95.2269 -50.8783 95.84 -51.455 96.3515L-66.711 109.911C-68.0262 111.078 -69.0107 112.459 -69.6506 113.961C-71.4285 118.124 -70.5758 123.239 -67.0676 127.557L-52.4439 145.53C-51.3416 146.884 -50.7954 148.471 -50.9173 149.985L-52.5077 170.03C-53.0058 176.348 -48.4191 182.792 -41.3891 185.792C-41.1441 185.893 -40.8821 186.002 -40.602 186.108L-39.8661 186.387L-17.7179 194.793L-17.6744 194.809L-17.3658 194.935C-15.789 195.607 -14.4425 196.695 -13.5486 198.025L-0.870296 216.899C1.19635 219.975 4.28633 222.399 7.75617 223.875C11.221 225.355 15.1089 225.906 18.7597 225.267L41.155 221.346C42.7353 221.068 44.4516 221.288 46.028 221.96L46.3629 222.111L46.7531 222.296L68.371 232.559L68.5185 232.63C68.7479 232.736 68.9931 232.845 69.2568 232.958C76.2879 235.955 84.1149 234.806 88.3297 230.07L101.691 215.043C102.698 213.907 104.222 213.201 105.959 213.058L129.055 211.166C134.597 210.706 138.878 207.782 140.65 203.616C141.293 202.116 141.605 200.449 141.538 198.687L140.76 178.295ZM126.796 203.249L103.706 205.143C99.7719 205.464 96.3401 207.06 94.0612 209.622L80.6996 224.65C78.8386 226.75 75.3612 227.257 72.2525 225.932L71.8705 225.758L49.8034 215.283L49.815 215.288C49.5648 215.168 49.3027 215.05 49.0245 214.932C45.4631 213.411 41.5778 212.917 38.0199 213.542L15.624 217.463C13.9986 217.746 12.2982 217.505 10.7522 216.846C9.20364 216.186 7.85238 215.126 6.93075 213.757L-5.74739 194.883C-7.76079 191.886 -10.8071 189.425 -14.3698 187.906C-14.6026 187.807 -14.8709 187.698 -15.1632 187.59L-15.1622 187.587L-38.0407 178.905L-38.0347 178.907L-38.3912 178.761C-41.4947 177.44 -43.5396 174.578 -43.313 171.782L-41.7217 151.737C-41.4508 148.318 -42.6765 144.737 -45.171 141.673L-59.7932 123.704C-61.3486 121.794 -61.7222 119.526 -60.937 117.676C-60.6541 117.012 -60.2218 116.407 -59.6376 115.885L-44.3812 102.325C-43.0813 101.171 -42.0887 99.7931 -41.439 98.2692C-40.7894 96.7453 -40.4827 95.0752 -40.5486 93.3353L-41.331 72.9434C-41.3571 72.1561 -41.2197 71.425 -40.9367 70.7613C-40.1456 68.9139 -38.2553 67.616 -35.8004 67.4159L-12.7047 65.5241C-8.76802 65.1983 -5.3364 63.6031 -3.05837 61.0429L10.3037 46.013C12.1636 43.9154 15.6453 43.4067 18.7499 44.7331L19.0514 44.8674L19.146 44.913L41.1988 55.3824L41.2186 55.3908L41.9672 55.7264C45.5315 57.2487 49.4168 57.7422 52.9783 57.1245L75.3742 53.2033L73.8099 49.3026L75.3783 53.2022C77.0051 52.9168 78.7045 53.1602 80.2531 53.8204C81.799 54.4795 83.1503 55.5395 84.0715 56.9082L96.7526 75.7832C98.7701 78.7875 101.822 81.2433 105.382 82.7609C105.646 82.8733 105.889 82.9717 106.11 83.0578L106.194 83.0884L128.639 91.6078L129.055 91.7655L129.392 91.9012C132.499 93.2229 134.542 96.087 134.317 98.8813L132.725 118.929C132.455 122.345 133.681 125.926 136.171 128.992L150.795 146.964C152.351 148.874 152.727 151.138 151.939 152.984C151.657 153.648 151.226 154.256 150.633 154.783L135.384 168.34C134.084 169.495 133.091 170.872 132.442 172.396C131.792 173.92 131.486 175.59 131.553 177.328L132.33 197.723C132.361 198.509 132.22 199.239 131.938 199.903C131.149 201.749 129.255 203.048 126.796 203.249Z" fill="#F39200" fill-opacity="0.03"/>
<path d="M35.4686 119.358C35.4068 119.069 35.2285 118.844 34.8646 118.754L28.3237 117.115C27.9609 117.022 27.7258 117.141 27.5775 117.378L10.7076 142.907C10.5604 143.142 10.6362 143.342 10.9999 143.433L17.7976 145.138C18.1611 145.228 18.3881 145.152 18.5417 144.871L21.3672 140.216L33.7217 143.314L34.8934 148.97C34.9458 149.304 35.1335 149.484 35.4965 149.576L42.2441 151.266C42.6065 151.358 42.7376 151.208 42.6778 150.923L35.4686 119.358ZM24.3897 135.336L30.0895 126.031L30.2467 126.071L32.541 137.381L24.3897 135.336Z" fill="#F39200" fill-opacity="0.03"/>
<path d="M-0.0453761 122.221L-1.87465 121.536C-5.8509 120.044 -7.12073 118.597 -6.84071 116.909C-6.5329 115.048 -4.70443 114.108 -1.58868 114.89C1.31561 115.617 3.78257 117.047 6.2418 119.196C6.47441 119.39 6.74295 119.412 6.98429 119.248L10.8057 116.101C11.1155 115.863 11.0925 115.68 10.8086 115.426C8.16524 112.783 3.99933 110.517 -0.670761 109.349C-8.30078 107.434 -13.7736 109.806 -14.6699 115.219C-15.528 120.415 -11.9978 124.227 -4.96996 126.847L-3.13767 127.533C0.983327 129.062 2.05143 130.456 1.76802 132.191C1.42233 134.268 -0.891951 135.175 -4.57416 134.251C-8.31094 133.316 -11.2361 131.049 -13.3146 128.903C-13.5417 128.666 -13.8535 128.587 -14.0995 128.755L-18.6654 131.532C-18.9714 131.724 -18.9154 132.056 -18.7363 132.281C-16.3514 135.177 -11.3065 138.336 -5.80308 139.714C3.33228 142.005 8.70755 139.249 9.58959 133.924C10.4686 128.599 7.08271 124.865 -0.0453761 122.221Z" fill="#F39200" fill-opacity="0.03"/>
<path d="M72.1998 152.872L56.6293 148.968C56.4237 148.915 56.3348 148.802 56.3613 148.629L60.1764 125.552C60.2212 125.29 60.0451 125.066 59.7322 124.989L53.1401 123.336C52.8283 123.257 52.5896 123.378 52.5449 123.639L47.8211 152.214C47.7812 152.472 47.9594 152.7 48.2708 152.779L71.2639 158.541C71.5784 158.621 71.8115 158.498 71.8553 158.239L72.651 153.432C72.695 153.172 72.5153 152.95 72.1998 152.872Z" fill="#F39200" fill-opacity="0.03"/>
<path d="M100.37 160.111L85.1603 156.296C84.9537 156.246 84.8609 156.133 84.8904 155.962L85.9019 149.855C85.9284 149.682 86.0478 149.622 86.2543 149.672L98.9202 152.849C99.2291 152.927 99.4678 152.807 99.5086 152.546L100.268 147.957C100.311 147.699 100.129 147.473 99.8205 147.396L87.1571 144.22C86.9507 144.169 86.8588 144.055 86.8857 143.882L87.8525 138.037C87.8839 137.861 88.0023 137.803 88.2088 137.854L103.419 141.667C103.728 141.744 103.964 141.623 104.008 141.364L104.775 136.734C104.817 136.47 104.638 136.246 104.328 136.171L81.696 130.495C81.3836 130.418 81.1486 130.537 81.1068 130.8L76.3804 159.373C76.3365 159.633 76.5147 159.861 76.8272 159.937L99.459 165.613C99.7688 165.688 100.004 165.567 100.048 165.307L100.816 160.675C100.857 160.414 100.679 160.186 100.37 160.111Z" fill="#F39200" fill-opacity="0.03"/>
</g>
<defs>
<clipPath id="clip0_189_714">
<rect width="238.622" height="192.506" fill="white" transform="translate(-26.5059) rotate(23.0891)"/>
</clipPath>
</defs>
</svg>
