<svg width="434" height="415" viewBox="0 0 434 415" fill="none" xmlns="http://www.w3.org/2000/svg">
<g clip-path="url(#clip0_189_707)">
<path d="M353.509 269.552C353.505 268.355 353.744 267.198 354.198 266.132C354.652 265.066 355.322 264.093 356.189 263.267L379.108 241.374C381.087 239.483 382.597 237.284 383.605 234.909C386.411 228.338 385.433 220.426 380.548 213.897L360.183 186.688C358.648 184.638 357.938 182.188 358.193 179.83L361.555 148.545C362.606 138.691 356.262 128.901 346.172 124.6C345.794 124.439 345.412 124.285 345.022 124.139L312.247 111.853L311.677 111.623C309.403 110.654 307.495 109.029 306.26 107.009L288.774 78.2998C285.929 73.6169 281.554 70.0063 276.582 67.8909C271.608 65.766 265.974 65.1098 260.616 66.3003L227.801 73.5606C225.492 74.0704 222.994 73.816 220.72 72.8466L220.212 72.617L188.45 57.3815L188.648 57.4789C188.215 57.2645 187.822 57.0926 187.476 56.9453C177.387 52.6442 165.93 54.8448 159.549 62.4271L139.304 86.5147C137.78 88.3317 135.52 89.5154 132.978 89.8272L99.2459 93.974C91.1527 94.9713 84.7618 99.7451 81.9638 106.32C80.9538 108.69 80.4086 111.3 80.4115 114.032L80.492 145.735C80.4963 146.931 80.2579 148.089 79.8036 149.154C79.3509 150.216 78.6794 151.193 77.8128 152.019L54.8882 173.914C52.912 175.798 51.4063 177.999 50.3963 180.368C47.5905 186.939 48.5666 194.855 53.4518 201.393L73.8169 228.602C75.352 230.652 76.0649 233.095 75.8088 235.456L72.4507 266.734C71.3969 276.592 77.7424 286.381 87.8255 290.684C88.1771 290.83 88.553 290.986 88.9554 291.136L90.0128 291.532L121.834 303.463L121.897 303.485L122.34 303.665C124.601 304.629 126.506 306.252 127.739 308.276L145.223 336.988C148.074 341.669 152.448 345.279 157.425 347.397C162.395 349.52 168.029 350.176 173.379 348.991L206.201 341.725C208.517 341.21 211.005 341.464 213.266 342.428L213.746 342.645L214.305 342.913L245.258 357.76L245.469 357.863C245.797 358.016 246.149 358.174 246.527 358.335C256.612 362.634 268.071 360.439 274.456 352.85L294.697 328.77C296.223 326.949 298.48 325.773 301.017 325.459L334.754 321.314C342.85 320.31 349.236 315.538 352.034 308.963C353.048 306.596 353.589 303.984 353.583 301.246L353.509 269.552ZM331.875 309.112L298.147 313.26C292.4 313.964 287.319 316.625 283.867 320.731L263.625 344.811C260.805 348.176 255.714 349.146 251.255 347.245L250.708 346.995L219.112 331.84L219.129 331.847C218.771 331.673 218.395 331.504 217.996 331.334C212.888 329.152 207.255 328.586 202.04 329.743L169.218 337.009C166.835 337.534 164.371 337.248 162.154 336.302C159.933 335.355 158.02 333.776 156.749 331.694L139.264 302.981C136.487 298.421 132.178 294.749 127.068 292.57C126.735 292.428 126.349 292.273 125.929 292.12L125.931 292.116L93.0603 279.793L93.0689 279.796L92.5573 279.587C88.1057 277.693 85.276 273.346 85.7514 268.982L89.1108 237.705C89.683 232.37 88.084 226.862 84.61 222.223L64.247 195.019C62.0808 192.128 61.6546 188.617 62.8944 185.697C63.3408 184.65 64.002 183.685 64.88 182.843L87.8052 160.948C89.7584 159.084 91.2757 156.888 92.3011 154.483C93.3265 152.078 93.86 149.463 93.8545 146.758L93.7746 115.065C93.7775 113.841 94.0156 112.696 94.4622 111.648C95.7105 108.732 98.5311 106.614 102.117 106.175L135.854 102.031C141.604 101.32 146.685 98.6588 150.136 94.5561L170.379 70.472C173.197 67.1109 178.294 66.1384 182.747 68.0412L183.179 68.2345L183.314 68.3006L214.89 83.4472L214.918 83.4593L215.991 83.9425C221.103 86.1264 226.736 86.6925 231.956 85.5462L264.778 78.28L262.703 72.2909L264.784 78.278C267.169 77.7494 269.631 78.0399 271.852 78.9868C274.07 79.9321 275.983 81.5115 277.253 83.5937L294.742 112.308C297.524 116.879 301.842 120.542 306.948 122.719C307.326 122.88 307.675 123.02 307.993 123.143L308.114 123.186L340.362 135.278L340.958 135.502L341.442 135.695C345.899 137.591 348.726 141.941 348.253 146.302L344.893 177.583C344.322 182.914 345.921 188.422 349.389 193.064L369.754 220.273C371.921 223.164 372.35 226.667 371.108 229.582C370.662 230.629 370.003 231.599 369.112 232.448L346.198 254.339C344.245 256.204 342.727 258.399 341.701 260.805C340.676 263.21 340.143 265.825 340.15 268.525L340.223 300.224C340.226 301.446 339.984 302.59 339.538 303.637C338.294 306.551 335.467 308.671 331.875 309.112Z" fill="#F39200" fill-opacity="0.03"/>
<path d="M203.219 183.305C203.144 182.858 202.896 182.518 202.37 182.397L192.929 180.185C192.405 180.06 192.057 180.257 191.828 180.634L165.931 221.24C165.705 221.613 165.805 221.92 166.33 222.042L176.142 224.342C176.666 224.463 177.001 224.333 177.239 223.888L181.596 216.497L199.429 220.677L200.842 229.418C200.901 229.934 201.165 230.205 201.689 230.329L211.429 232.608C211.952 232.733 212.151 232.493 212.078 232.053L203.219 183.305ZM186.252 208.747L195.037 193.969L195.264 194.023L198.018 211.505L186.252 208.747Z" fill="#F39200" fill-opacity="0.03"/>
<path d="M151.346 189.606L148.717 188.635C143.003 186.52 141.229 184.334 141.724 181.693C142.27 178.78 144.982 177.222 149.479 178.278C153.671 179.258 157.19 181.356 160.66 184.572C160.989 184.861 161.379 184.882 161.739 184.614L167.468 179.518C167.932 179.132 167.908 178.849 167.507 178.468C163.795 174.491 157.845 171.182 151.104 169.606C140.09 167.023 131.996 170.999 130.409 179.469C128.889 187.6 133.833 193.348 143.933 197.06L146.566 198.033C152.488 200.199 153.972 202.313 153.469 205.027C152.857 208.278 149.439 209.809 144.124 208.563C138.731 207.301 134.588 203.926 131.672 200.694C131.354 200.337 130.904 200.23 130.537 200.504L123.742 205.064C123.287 205.378 123.351 205.892 123.6 206.233C126.923 210.616 134.107 215.27 142.051 217.129C155.237 220.219 163.209 215.65 164.771 207.319C166.328 198.985 161.59 193.35 151.346 189.606Z" fill="#F39200" fill-opacity="0.03"/>
<path d="M254.977 233.551L232.502 228.284C232.205 228.213 232.082 228.041 232.129 227.771L238.885 191.66C238.964 191.25 238.719 190.91 238.267 190.807L228.752 188.578C228.302 188.471 227.948 188.671 227.869 189.08L219.504 233.794C219.433 234.198 219.681 234.543 220.13 234.649L253.319 242.422C253.773 242.53 254.119 242.327 254.196 241.921L255.605 234.399C255.683 233.992 255.432 233.655 254.977 233.551Z" fill="#F39200" fill-opacity="0.03"/>
<path d="M295.629 243.353L273.675 238.206C273.377 238.139 273.248 237.968 273.299 237.7L275.09 228.144C275.138 227.874 275.315 227.774 275.613 227.842L293.895 232.128C294.341 232.232 294.695 232.033 294.768 231.625L296.113 224.444C296.188 224.04 295.935 223.698 295.49 223.594L277.211 219.309C276.913 219.242 276.785 219.068 276.833 218.798L278.545 209.652C278.6 209.376 278.776 209.28 279.074 209.348L301.029 214.491C301.475 214.596 301.825 214.395 301.902 213.989L303.26 206.744C303.334 206.332 303.086 205.992 302.638 205.891L269.97 198.234C269.519 198.131 269.171 198.328 269.096 198.74L260.728 243.452C260.65 243.859 260.898 244.203 261.349 244.306L294.017 251.962C294.464 252.063 294.813 251.862 294.891 251.456L296.25 244.208C296.323 243.798 296.076 243.453 295.629 243.353Z" fill="#F39200" fill-opacity="0.03"/>
</g>
<defs>
<clipPath id="clip0_189_707">
<rect width="342.259" height="303.846" fill="white" transform="translate(119.156 0.778564) rotate(23.0891)"/>
</clipPath>
</defs>
</svg>
