<svg width="498" height="415" viewBox="0 0 498 415" fill="none" xmlns="http://www.w3.org/2000/svg">
<g clip-path="url(#clip0_189_723)">
<path fill-rule="evenodd" clip-rule="evenodd" d="M365.801 395.588L36.7881 272.719C27.6029 269.289 19.7025 263.566 14.8248 256.81C9.94711 250.054 8.49176 242.818 10.7789 236.693L97.1538 111.075C110.445 93.3963 128.878 96.6094 148.004 103.752L170.965 112.327C199.001 77.092 249.4 62.6807 296.155 80.141C342.909 97.6013 371.525 141.521 369.602 186.507L392.564 195.082C411.69 202.225 427.725 211.884 426.166 233.944L409.057 385.43C406.77 391.554 400.928 396.065 392.816 397.97C384.703 399.875 374.986 399.018 365.801 395.588ZM291.843 91.687C254.162 77.6153 213.18 89.794 188.741 118.965L351.836 179.872C352.491 141.819 329.532 105.762 291.843 91.687ZM408.85 227.477C409.294 225.746 409.224 223.87 408.645 221.958C408.066 220.047 406.99 218.14 405.479 216.35C403.968 214.559 402.054 212.921 399.849 211.533C397.644 210.145 395.194 209.035 392.642 208.268L368.139 199.117C367.115 205.279 365.533 211.279 363.403 217.083C362.831 218.614 361.371 219.742 359.342 220.218C357.314 220.694 354.885 220.48 352.589 219.623C350.292 218.765 348.317 217.334 347.098 215.645C345.878 213.956 345.515 212.147 346.086 210.616C348.259 204.827 349.841 198.825 350.823 192.65L181.121 129.276C177.82 134.584 175.08 140.154 172.922 145.948C172.35 147.479 170.89 148.607 168.862 149.083C166.833 149.56 164.404 149.345 162.108 148.488C159.811 147.63 157.836 146.2 156.617 144.511C155.398 142.822 155.034 141.013 155.605 139.481C157.805 133.704 160.544 128.136 163.805 122.809L139.293 113.655C136.864 112.563 134.286 111.796 131.712 111.4C129.138 111.004 126.62 110.987 124.306 111.349C121.992 111.711 119.93 112.446 118.241 113.509C116.552 114.573 115.269 115.944 114.47 117.542L28.0953 243.16C26.9518 246.222 27.6794 249.841 30.1183 253.219C32.5571 256.597 36.5074 259.458 41.1 261.173L370.113 384.042C374.705 385.757 379.564 386.186 383.62 385.233C387.676 384.28 390.597 382.025 391.741 378.963L408.85 227.477Z" fill="#9E0C26" fill-opacity="0.02"/>
</g>
<defs>
<clipPath id="clip0_189_723">
<rect width="425.145" height="283.472" fill="white" transform="translate(99.1719) rotate(20.478)"/>
</clipPath>
</defs>
</svg>
