<svg width="204" height="328" viewBox="0 0 204 328" fill="none" xmlns="http://www.w3.org/2000/svg">
<g clip-path="url(#clip0_189_727)">
<path d="M68.8936 133.055C68.8936 133.055 58.6484 104.122 53.4327 83.2155C52.9865 81.8521 52.7168 80.7917 52.1869 79.883C51.2108 77.6109 50.2346 75.3389 48.8215 72.9157C43.8757 64.4347 28.3971 57.6311 22.6707 60.9706C15.6428 65.069 10.8554 77.1966 8.05746 87.3522C7.46254 89.3228 5.90078 90.2335 3.89276 89.7809C-6.06366 87.0632 -18.4557 84.9541 -26.2645 89.5079C-31.991 92.8474 -33.6918 109.669 -28.746 118.15C-25.3899 123.905 -21.9594 127.993 -18.278 130.717C-3.70106 144.947 12.4843 164.327 13.4511 165.387C10.6998 181.604 41.9472 289.617 41.9472 289.617C41.9472 289.617 54.2836 295.818 82.8788 285.637L81.5494 282.759L87.5455 280.48L88.8749 283.358C95.9121 280.471 103.814 276.675 112.664 271.514C121.514 266.353 128.709 261.345 134.687 256.642L132.837 254.067L137.773 249.971L139.623 252.545C163.003 232.823 163.244 218.881 163.244 218.881C163.244 218.881 83.3124 138.041 68.8936 133.055Z" fill="#213A8F" fill-opacity="0.04"/>
<path d="M44.4812 154.597C25.2195 165.83 14.4265 167.659 13.7293 167.66C11.554 168.117 7.30535 159.635 9.48068 159.178C9.48068 159.178 21.3148 156.742 39.5354 146.116C57.7559 135.491 65.0998 127.149 65.0998 127.149C66.5686 125.481 71.942 132.9 70.6499 134.872C70.3896 135.023 64.0032 143.213 44.4812 154.597ZM47.4848 193.842C45.4025 195.056 82.7014 285.334 82.7014 285.334L88.5208 282.752C88.5208 282.752 49.5672 192.627 47.4848 193.842ZM77.1583 176.537C79.2406 175.323 139.445 252.242 139.445 252.242L134.332 256.036C134.332 256.036 75.0759 177.752 77.1583 176.537ZM23.7111 60.3634L14.1727 44.0072C12.7596 41.584 13.2615 38.8559 15.3439 37.6416C17.4262 36.4272 20.0478 37.3338 21.4609 39.7569L34.3554 61.8681C30.2464 60.2054 26.407 59.6031 23.7111 60.3634ZM-31.1549 99.6656L-43.8728 77.8573C-45.2859 75.4342 -44.7839 72.7061 -42.7016 71.4917C-40.6192 70.2773 -37.9977 71.1839 -36.5846 73.6071L-27.0462 89.9633C-29.2122 91.6324 -30.8389 95.4223 -31.1549 99.6656Z" fill="#213A8F" fill-opacity="0.04"/>
</g>
<defs>
<clipPath id="clip0_189_727">
<rect width="216.951" height="252.457" fill="white" transform="translate(-111 109.292) rotate(-30.2493)"/>
</clipPath>
</defs>
</svg>
