<svg width="181" height="220" viewBox="0 0 181 220" fill="none" xmlns="http://www.w3.org/2000/svg">
<path d="M110.216 152.841C127.011 127.386 139.672 92.2464 146.087 55.4083C147.361 50.7222 147.068 49.467 147.099 48.7824L135.923 46.0065C135.819 48.2066 132.141 59.5088 130.566 62.2409C114.289 90.4855 83.2155 105.914 57.1522 113.861C54.8667 106.649 50.1049 100.393 43.1631 96.5385C27.7478 87.9797 7.51417 94.4651 -2.02829 111.024C-11.576 127.591 -6.81486 147.954 8.6004 156.513C24.0157 165.072 44.2534 158.589 53.8012 142.021C56.9874 136.492 58.5455 130.536 58.677 124.739C82.1663 116.626 108.748 102.614 128.114 82.2479C122.182 107.169 113.414 128.002 101.857 144.576C101.264 144.186 100.676 143.787 100.048 143.438C84.6328 134.879 64.3951 141.362 54.85 157.925C45.305 174.488 50.0706 194.853 65.4856 203.412C80.9006 211.971 101.135 205.485 110.68 188.922C117.606 176.904 116.97 162.907 110.216 152.841ZM18.8194 118.101C14.9979 115.98 13.8147 110.936 16.183 106.826C18.5459 102.726 23.5625 101.118 27.384 103.24C31.2056 105.361 32.3904 110.413 30.0275 114.513C27.6591 118.622 22.6409 120.223 18.8194 118.101ZM74.9681 168.9C70.7334 166.548 69.4223 160.957 72.0464 156.404C74.665 151.86 80.2252 150.078 84.4599 152.429C88.6945 154.78 89.9985 160.373 87.3799 164.917C84.7558 169.471 79.2027 171.251 74.9681 168.9Z" fill="#A50716" fill-opacity="0.02"/>
</svg>
