<svg width="163" height="281" viewBox="0 0 163 281" fill="none" xmlns="http://www.w3.org/2000/svg">
<g clip-path="url(#clip0_189_737)">
<path d="M55.6914 146.554C55.6914 146.554 71.9186 128.246 84.9529 116.684C85.7393 115.849 86.3975 115.258 86.7826 114.525C87.9542 112.956 89.1258 111.388 90.1528 109.431C93.7472 102.584 89.744 88.317 83.7377 85.1641C76.3662 81.2947 64.1311 82.0467 54.6098 83.5995C52.7313 83.8611 51.0932 83.0012 50.2416 81.3065C46.3849 72.7314 40.6009 62.5207 32.4104 58.2213C26.404 55.0684 12.388 59.8766 8.79358 66.724C6.35453 71.3705 5.24803 75.4687 5.34568 79.2632C3.07125 95.5377 -2.22083 114.907 -2.46129 116.029C-16.6382 119.817 -81.4061 182.831 -81.4061 182.831C-81.4061 182.831 -78.8169 194.484 -53.8421 212.585L-52.4137 210.527L-47.0655 214.27L-48.4938 216.328C-42.0535 220.644 -34.3927 225.29 -25.1101 230.162C-15.8275 235.035 -7.6533 238.702 -0.442754 241.551L0.439565 239.207L6.55804 241.483L5.67572 243.827C34.903 254.49 45.82 249.615 45.82 249.615C45.82 249.615 60.4648 159.354 55.6914 146.554Z" fill="#213A8F" fill-opacity="0.06"/>
<path d="M24.4407 135.765C4.23738 125.16 -3.63314 117.597 -4.0508 117.066C-5.70518 115.574 -1.69314 109.257 -0.03876 110.75C-0.03876 110.75 8.92383 118.886 28.035 128.918C47.1463 138.95 57.9856 141.52 57.9856 141.52C60.1534 142.034 57.6349 148.822 55.3386 148.553C55.0656 148.409 44.917 146.514 24.4407 135.765ZM-4.08675 152.296C-6.27089 151.149 -53.7139 212.34 -53.7139 212.34L-48.2373 215.839C-48.2373 215.839 -1.90261 153.442 -4.08675 152.296ZM27.0372 168.634C29.2214 169.78 5.80387 243.582 5.80387 243.582L-0.186242 241.062C-0.186242 241.062 24.8531 167.487 27.0372 168.634ZM84.8295 85.7372L91.7615 72.5314C92.7885 70.575 95.1968 69.9676 97.3809 71.1141C99.5651 72.2606 100.433 74.5878 99.406 76.5442L90.0349 94.3965C88.8615 90.6611 87.0299 87.5161 84.8295 85.7372ZM21.6359 58.1804L30.8786 40.5726C31.9056 38.6162 34.3139 38.0088 36.498 39.1553C38.6822 40.3018 39.55 42.629 38.5231 44.5854L31.5911 57.7912C29.0055 56.7459 25.1038 56.8814 21.6359 58.1804Z" fill="#213A8F" fill-opacity="0.06"/>
</g>
<defs>
<clipPath id="clip0_189_737">
<rect width="222.009" height="198.861" fill="white" transform="translate(-33.5723 0.814453) rotate(27.696)"/>
</clipPath>
</defs>
</svg>
