<svg width="252" height="325" viewBox="0 0 252 325" fill="none" xmlns="http://www.w3.org/2000/svg">
<g clip-path="url(#clip0_189_746)">
<path fill-rule="evenodd" clip-rule="evenodd" d="M237.808 311.081L25.0244 231.617C19.084 229.399 14.1677 225.18 11.357 219.89C8.54634 214.6 8.07153 208.671 10.037 203.408L76.901 92.7044C87.0746 77.0459 99.2516 78.4389 111.621 83.0583L126.471 88.604C147.788 57.2873 182.699 41.7653 212.937 53.0575C243.174 64.3497 259.365 98.9554 254.936 136.579L269.786 142.125C282.156 146.744 292.271 153.676 289.685 172.168L267.617 299.601C265.652 304.864 261.407 309.03 255.816 311.183C250.226 313.336 243.748 313.299 237.808 311.081ZM209.231 62.9799C184.862 53.8792 156.442 66.8843 137.967 92.8971L243.446 132.288C246.539 100.531 233.606 72.0826 209.231 62.9799ZM278.485 167.986C278.905 166.512 278.989 164.953 278.732 163.401C278.476 161.849 277.884 160.335 276.993 158.948C276.101 157.561 274.927 156.329 273.541 155.326C272.154 154.323 270.583 153.569 268.92 153.107L253.073 147.189C251.955 152.396 250.472 157.506 248.635 162.491C248.143 163.807 247.082 164.848 245.685 165.387C244.287 165.925 242.668 165.916 241.183 165.361C239.697 164.807 238.468 163.752 237.766 162.429C237.063 161.107 236.944 159.625 237.436 158.309C239.301 153.333 240.783 148.221 241.874 143.007L132.122 102.021C129.531 106.674 127.3 111.507 125.444 116.486C124.953 117.802 123.892 118.843 122.494 119.382C121.097 119.92 119.477 119.911 117.992 119.356C116.507 118.801 115.278 117.747 114.575 116.424C113.873 115.102 113.754 113.619 114.245 112.304C116.128 107.336 118.358 102.504 120.923 97.8383L105.071 91.9183C103.513 91.1775 101.832 90.7181 100.128 90.5674C98.4235 90.4166 96.7306 90.5776 95.1488 91.0406C93.567 91.5037 92.1284 92.2596 90.9178 93.2637C89.7072 94.2677 88.7491 95.4996 88.1001 96.8867L21.2362 207.59C20.2534 210.222 20.4908 213.186 21.8961 215.831C23.3015 218.476 25.7596 220.586 28.7298 221.695L241.513 301.158C244.484 302.267 247.723 302.286 250.518 301.209C253.313 300.133 255.435 298.05 256.418 295.418L278.485 167.986Z" fill="#ED1A3B" fill-opacity="0.05"/>
</g>
<defs>
<clipPath id="clip0_189_746">
<rect width="274.956" height="243.608" fill="white" transform="translate(86) rotate(20.478)"/>
</clipPath>
</defs>
</svg>
