<svg width="454" height="378" viewBox="0 0 454 378" fill="none" xmlns="http://www.w3.org/2000/svg">
<g clip-path="url(#clip0_189_721)">
<path fill-rule="evenodd" clip-rule="evenodd" d="M333.362 360.508L33.5255 248.535C25.1548 245.409 17.955 240.194 13.5099 234.037C9.06475 227.88 7.73846 221.285 9.82278 215.704L88.5381 101.225C100.65 85.1142 117.449 88.0424 134.879 94.5515L155.804 102.366C181.354 70.2557 227.284 57.1224 269.892 73.0344C312.5 88.9464 338.578 128.971 336.826 169.968L357.751 177.783C375.181 184.292 389.795 193.095 388.374 213.198L372.782 351.25C370.698 356.832 365.374 360.942 357.981 362.679C350.588 364.415 341.732 363.634 333.362 360.508ZM265.962 83.5565C231.623 70.7327 194.275 81.8314 172.003 108.416L320.635 163.922C321.232 129.243 300.309 96.3833 265.962 83.5565ZM372.593 207.305C372.998 205.727 372.934 204.017 372.407 202.276C371.879 200.534 370.898 198.796 369.521 197.164C368.144 195.532 366.4 194.04 364.39 192.775C362.381 191.51 360.148 190.498 357.822 189.799L335.492 181.46C334.559 187.075 333.118 192.543 331.176 197.832C330.655 199.228 329.324 200.255 327.476 200.69C325.628 201.124 323.414 200.928 321.321 200.147C319.229 199.365 317.429 198.062 316.317 196.522C315.206 194.983 314.874 193.334 315.396 191.939C317.375 186.663 318.817 181.193 319.712 175.567L165.059 117.812C162.05 122.65 159.554 127.726 157.587 133.006C157.066 134.401 155.735 135.429 153.887 135.863C152.039 136.297 149.825 136.102 147.732 135.32C145.639 134.539 143.839 133.235 142.728 131.696C141.617 130.157 141.285 128.508 141.806 127.113C143.811 121.847 146.306 116.773 149.279 111.919L126.941 103.577C124.727 102.581 122.377 101.883 120.032 101.522C117.686 101.161 115.391 101.145 113.283 101.475C111.174 101.805 109.295 102.474 107.755 103.444C106.216 104.413 105.047 105.662 104.319 107.118L25.6036 221.597C24.5615 224.388 25.2246 227.685 27.4472 230.764C29.6697 233.842 33.2697 236.45 37.455 238.013L337.291 349.986C341.476 351.549 345.904 351.939 349.601 351.071C353.297 350.203 355.959 348.148 357.001 345.357L372.593 207.305Z" fill="#F39200" fill-opacity="0.04"/>
</g>
<defs>
<clipPath id="clip0_189_721">
<rect width="387.443" height="258.334" fill="white" transform="translate(90.377) rotate(20.478)"/>
</clipPath>
</defs>
</svg>
