<svg width="269" height="235" viewBox="0 0 269 235" fill="none" xmlns="http://www.w3.org/2000/svg">
<g clip-path="url(#clip0_189_744)">
<path fill-rule="evenodd" clip-rule="evenodd" d="M193.151 223.804L19.5382 158.968C14.6914 157.158 10.5752 153.998 8.09512 150.181C5.61504 146.365 4.97425 142.206 6.31372 138.62L54.8915 64.3012C62.335 53.8207 72.1314 55.3294 82.2237 59.0984L94.3401 63.6232C110.002 42.7051 137.228 33.4098 161.9 42.6232C186.571 51.8366 201.039 76.7026 199.156 102.767L211.273 107.291C221.365 111.06 229.757 116.344 228.504 129.136L216.476 217.104C215.137 220.691 211.927 223.412 207.552 224.668C203.178 225.925 197.997 225.614 193.151 223.804ZM159.374 49.3851C139.491 41.9598 117.344 49.7845 103.72 67.126L189.781 99.2654C190.855 77.2371 179.262 56.8122 159.374 49.3851ZM219.366 125.724C219.637 124.714 219.635 123.63 219.362 122.535C219.088 121.44 218.549 120.357 217.775 119.35C217.001 118.343 216.009 117.432 214.856 116.671C213.703 115.91 212.414 115.314 211.064 114.918L198.134 110.09C197.469 113.674 196.51 117.176 195.26 120.574C194.925 121.471 194.123 122.151 193.029 122.465C191.936 122.779 190.64 122.701 189.429 122.249C188.217 121.796 187.188 121.006 186.568 120.052C185.948 119.098 185.788 118.058 186.123 117.162C187.394 113.771 188.354 110.268 188.997 106.677L99.4492 73.2361C97.5826 76.37 96.0119 79.6446 94.7476 83.0378C94.4127 83.9345 93.6102 84.6147 92.5166 84.9288C91.4231 85.2429 90.1279 85.1651 88.9162 84.7126C87.7045 84.2601 86.6755 83.4699 86.0555 82.5159C85.4354 81.5619 85.2752 80.5221 85.6101 79.6254C86.8962 76.241 88.4664 72.9674 90.3117 69.8238L77.3776 64.9936C76.0991 64.4078 74.7351 64.0132 73.3661 63.8329C71.9971 63.6526 70.6508 63.6903 69.4066 63.9439C68.1624 64.1974 67.0456 64.6616 66.122 65.309C65.1984 65.9564 64.4867 66.774 64.029 67.7135L15.4512 142.032C14.7815 143.825 15.1019 145.905 16.3419 147.813C17.582 149.721 19.6401 151.301 22.0635 152.206L195.676 217.042C198.099 217.947 200.69 218.102 202.877 217.474C205.064 216.846 206.669 215.485 207.339 213.692L219.366 125.724Z" fill="#5C2483" fill-opacity="0.03"/>
</g>
<defs>
<clipPath id="clip0_189_744">
<rect width="224.339" height="166.016" fill="white" transform="translate(58.0801) rotate(20.478)"/>
</clipPath>
</defs>
</svg>
