<svg width="176" height="177" viewBox="0 0 176 177" fill="none" xmlns="http://www.w3.org/2000/svg">
<g clip-path="url(#clip0_189_701)">
<path d="M65.4409 99.1475C65.3468 98.9955 65.2228 98.8655 65.0762 98.7651C64.9295 98.6647 64.7631 98.5959 64.5864 98.5625C64.4098 98.5292 64.2264 98.532 64.047 98.5709C63.8675 98.6098 63.6955 98.6839 63.5409 98.7889C59.5801 101.454 52.6307 101.42 46.0689 95.3188C45.9411 95.1928 45.7878 95.0961 45.6183 95.0347C45.4488 94.9733 45.2667 94.9485 45.0834 94.9618C44.9 94.9751 44.7192 95.0263 44.5522 95.1122C44.3852 95.198 44.2356 95.3168 44.1124 95.461C43.9863 95.5993 43.887 95.7599 43.8202 95.9338C43.7534 96.1076 43.7205 96.2913 43.7233 96.4742C43.7261 96.6571 43.7646 96.8356 43.8365 96.9996C43.9085 97.1636 44.0125 97.3099 44.1426 97.4299C44.6603 97.9123 45.183 98.3575 45.7088 98.7743C52.8972 104.472 60.4317 104.135 64.9825 101.094C65.2941 100.883 65.517 100.559 65.6029 100.195C65.6887 99.8301 65.6305 99.4537 65.4409 99.1475Z" fill="#5C2483" fill-opacity="0.04"/>
<path d="M89.1824 127.078C89.0541 126.953 88.9008 126.858 88.7318 126.798C88.5627 126.737 88.3815 126.713 88.1989 126.726C88.0164 126.739 87.8363 126.789 87.6695 126.873C87.5027 126.958 87.3527 127.074 87.2285 127.217C86.9734 127.496 86.8331 127.861 86.8383 128.231C86.8434 128.601 86.9938 128.945 87.2562 129.189C87.7763 129.668 88.3021 130.115 88.8249 130.53C96.0133 136.228 103.545 135.894 108.096 132.853C108.26 132.753 108.404 132.621 108.519 132.466C108.634 132.311 108.718 132.135 108.766 131.95C108.814 131.765 108.825 131.573 108.799 131.388C108.772 131.202 108.708 131.026 108.611 130.87C108.513 130.714 108.385 130.581 108.233 130.48C108.081 130.378 107.908 130.31 107.725 130.28C107.543 130.25 107.354 130.257 107.17 130.303C106.987 130.348 106.812 130.431 106.657 130.545C102.696 133.209 95.7348 133.166 89.1824 127.078Z" fill="#5C2483" fill-opacity="0.04"/>
<path d="M127.445 126.578C127.58 126.396 127.672 126.186 127.711 125.966C127.766 125.634 133.126 92.3814 133.914 78.1611C134.269 76.0158 134.126 73.8435 133.498 71.8183C132.869 69.7932 131.773 67.9714 130.295 66.4991C129.175 65.7124 127.886 65.1917 126.517 64.9729C125.148 64.7542 123.732 64.8428 122.368 65.2325C122.192 65.2869 122.026 65.3754 121.88 65.4928C121.735 65.6103 121.612 65.7545 121.518 65.9171C121.425 66.0797 121.364 66.2576 121.337 66.4407C121.311 66.6237 121.32 66.8083 121.364 66.9838C121.408 67.1594 121.486 67.3225 121.595 67.4639C121.703 67.6053 121.839 67.7222 121.994 67.8078C122.15 67.8935 122.323 67.9463 122.502 67.9632C122.682 67.9801 122.865 67.9608 123.041 67.9064C123.989 67.6461 124.971 67.5884 125.921 67.7368C126.871 67.8853 127.768 68.2367 128.555 68.7681C129.645 70.0113 130.442 71.4947 130.891 73.1157C131.34 74.7366 131.43 76.4563 131.155 78.1559C130.505 89.8513 126.722 114.633 125.423 122.881C118.53 116.234 94.9728 95.6277 77.9566 105.717L73.3436 102.061C79.3402 83.2268 53.8461 64.9595 45.7918 59.759C53.5212 56.6235 76.7841 47.2762 88.0247 43.9702C92.501 42.6557 95.7743 42.7854 97.7432 44.346L97.7581 44.3578C98.4552 45.0025 99.0022 45.7962 99.3637 46.6873C99.7251 47.5784 99.8929 48.547 99.8561 49.53C99.8303 49.9012 99.9507 50.2595 100.191 50.5262C100.431 50.7928 100.772 50.9459 101.137 50.9519C101.503 50.9578 101.864 50.816 102.14 50.5577C102.417 50.2995 102.587 49.9458 102.613 49.5747C102.681 48.1571 102.444 46.7584 101.918 45.4756C101.393 44.1928 100.592 43.0565 99.5699 42.1457C97.7992 41.0435 95.7751 40.3916 93.66 40.2422C91.5448 40.0928 89.3973 40.45 87.3897 41.2852C73.7249 45.299 42.5749 58.1097 42.2636 58.2386C42.0583 58.3276 41.8747 58.4645 41.7284 58.6377L41.7009 58.6724C30.5836 71.9865 24.8129 92.0699 38.4164 104.674C39.1307 105.338 39.861 105.963 40.599 106.548C43.4183 109.069 46.7917 110.891 50.4742 111.881C54.1567 112.871 58.0559 113.005 61.8886 112.272C63.9863 111.795 65.9853 110.881 67.7558 109.589C69.5264 108.297 71.0287 106.657 72.1652 104.775L75.5951 107.494C74.0221 109.031 72.7687 110.869 71.9164 112.888C71.0641 114.908 70.6321 117.064 70.6485 119.215C70.8106 123.111 71.83 126.874 73.6325 130.231C75.4351 133.589 77.9757 136.456 81.0702 138.626C81.8082 139.211 82.5866 139.782 83.393 140.323C98.77 150.69 117.003 140.489 127.43 126.622L127.445 126.578ZM61.3585 109.547C57.4662 110.172 53.5331 109.865 49.8791 108.649C46.2252 107.434 42.9537 105.346 40.3307 102.553C28.2702 91.3782 32.891 74.0161 42.9702 61.3611C48.7282 64.9783 77.2929 84.079 70.4811 102.113C69.6422 103.984 68.3706 105.642 66.7791 106.939C65.1877 108.236 63.3257 109.132 61.3585 109.547ZM85.0086 137.966C81.6923 136.048 78.9126 133.34 76.8954 130.06C74.8782 126.78 73.6802 123.022 73.3989 119.09C73.3512 117.092 73.7912 115.085 74.6802 113.247C75.5691 111.41 76.8797 109.797 78.4963 108.553C89.9534 100.849 106.051 110.614 116.078 118.561C120.084 121.737 123.123 124.629 124.51 125.991C114.491 138.693 98.6451 147.159 85.0086 137.966Z" fill="#5C2483" fill-opacity="0.04"/>
</g>
<defs>
<clipPath id="clip0_189_701">
<rect width="121.996" height="129.039" fill="white" transform="translate(80.1543) rotate(38.401)"/>
</clipPath>
</defs>
</svg>
