<svg width="790" height="821" viewBox="0 0 790 821" fill="none" xmlns="http://www.w3.org/2000/svg">
<path d="M525.32 573.929C587.739 479.995 633.387 349.433 654.834 211.976C659.328 194.53 658.088 189.802 658.146 187.241L614.869 175.891C614.665 184.124 601.499 226.151 595.677 236.252C535.498 340.677 417.213 395.831 317.56 423.386C308.123 396.174 289.235 372.332 262.166 357.303C202.055 323.928 124.719 346.503 89.4388 407.722C54.1387 468.976 74.2693 545.665 134.38 579.039C194.492 612.414 271.843 589.848 307.143 528.595C318.924 508.154 324.397 485.972 324.391 464.266C414.119 435.871 515.232 385.643 588.002 310.994C567.362 403.849 535.442 481.146 492.405 542.255C490.087 540.743 487.789 539.195 485.339 537.835C425.228 504.461 347.876 527.026 312.586 588.262C277.296 649.498 297.444 726.197 357.554 759.57C417.664 792.944 495.001 770.37 530.291 709.134C555.899 664.698 552.214 612.209 525.32 573.929ZM170.336 436.011C155.434 427.737 150.433 408.741 159.19 393.547C167.926 378.388 187.1 372.791 202.002 381.065C216.904 389.338 221.912 408.361 213.176 423.521C204.419 438.713 185.238 444.285 170.336 436.011ZM391.018 631.087C374.505 621.919 368.963 600.862 378.665 584.027C388.347 567.227 409.599 561.024 426.111 570.192C442.624 579.36 448.139 600.425 438.457 617.225C428.755 634.059 407.531 640.255 391.018 631.087Z" fill="#A50716" fill-opacity="0.02"/>
</svg>
