<svg width="1680" height="5014" viewBox="0 0 1680 5014" fill="none" xmlns="http://www.w3.org/2000/svg">
<path d="M412.214 3383C429.009 3357.55 441.67 3322.41 448.085 3285.57C449.359 3280.88 449.066 3279.63 449.097 3278.94L437.921 3276.17C437.817 3278.37 434.139 3289.67 432.564 3292.4C416.287 3320.64 385.214 3336.07 359.15 3344.02C356.865 3336.81 352.103 3330.55 345.161 3326.7C329.746 3318.14 309.512 3324.62 299.97 3341.18C290.422 3357.75 295.183 3378.11 310.598 3386.67C326.014 3395.23 346.251 3388.75 355.799 3372.18C358.985 3366.65 360.544 3360.7 360.675 3354.9C384.164 3346.78 410.746 3332.77 430.112 3312.41C424.18 3337.33 415.412 3358.16 403.855 3374.74C403.262 3374.35 402.674 3373.95 402.046 3373.6C386.631 3365.04 366.393 3371.52 356.848 3388.08C347.303 3404.65 352.069 3425.01 367.484 3433.57C382.899 3442.13 403.133 3435.64 412.678 3419.08C419.604 3407.06 418.968 3393.07 412.214 3383ZM320.817 3348.26C316.996 3346.14 315.813 3341.1 318.181 3336.99C320.544 3332.89 325.561 3331.28 329.382 3333.4C333.204 3335.52 334.388 3340.57 332.026 3344.67C329.657 3348.78 324.639 3350.38 320.817 3348.26ZM376.966 3399.06C372.731 3396.71 371.42 3391.12 374.044 3386.56C376.663 3382.02 382.223 3380.24 386.458 3382.59C390.693 3384.94 391.997 3390.53 389.378 3395.08C386.754 3399.63 381.201 3401.41 376.966 3399.06Z" fill="#A50716" fill-opacity="0.03"/>
<g clip-path="url(#clip0_189_694)" id="karez">
<path d="M1390.95 749.489L1353.53 746.739C1352.45 746.66 1351.49 747.31 1351.11 748.381L1351.07 748.486C1349.3 753.468 1346.11 761.874 1335.82 763.652C1327.12 765.157 1307.83 749.85 1289.94 735.325C1278.21 725.796 1266.08 715.944 1254.73 708.849C1236.99 697.761 1225.97 693.436 1225.51 693.258C1224.74 692.957 1223.91 693.047 1223.27 693.502C1222.62 693.958 1222.22 694.73 1222.19 695.602L1221.72 707.019C1221.67 708.33 1222.43 709.595 1223.59 710.095C1223.66 710.127 1230.86 713.285 1242.21 721.06C1251.5 727.427 1265.34 738.138 1280.86 754.228C1254.12 748.09 1233.28 745.003 1224.36 744.136C1223.57 744.059 1222.83 744.368 1222.33 744.979C1221.82 745.59 1221.61 746.44 1221.76 747.299L1223.86 760.02C1223.86 760.03 1223.93 760.413 1224.05 760.714C1226.41 766.627 1231.36 775.419 1237.63 786.55C1243.67 797.295 1251.2 810.667 1258.63 825.486C1260.05 828.313 1263.06 829.669 1265.64 828.641L1268.44 827.519C1271.19 826.422 1272.41 822.988 1271.16 819.865L1250.48 768.095C1262.91 771.381 1278.54 776.222 1293.43 782.817C1329.96 798.994 1347.35 795.991 1358.42 791.568C1384.26 781.241 1401.25 764.504 1401.96 763.796C1402.74 763.019 1402.96 761.748 1402.5 760.605L1401.31 757.618C1399.47 753.007 1395.4 749.816 1390.95 749.489ZM1227.1 705.631L1227.32 700.091C1231.76 702.108 1240.61 706.453 1252.42 713.837C1263.46 720.738 1275.45 730.472 1287.04 739.886C1298.62 749.288 1309.31 757.965 1318.45 763.472C1315.61 762.983 1312.52 762.291 1309.14 761.361C1302.62 759.565 1296.28 757.928 1290.18 756.438C1259.81 723.132 1234.25 709.149 1227.1 705.631ZM1266.34 821.79C1266.38 821.891 1266.34 822.001 1266.25 822.037L1263.45 823.159C1263.37 823.189 1263.27 823.137 1263.22 823.041C1261.75 820.105 1260.27 817.229 1258.81 814.418L1262.76 812.837L1266.34 821.79ZM1260.57 807.356L1256.04 809.168C1251.02 799.737 1246.2 791.169 1242.06 783.825C1237.47 775.66 1233.6 768.78 1231.02 763.529C1234.17 764.169 1238.74 765.155 1244.25 766.509L1260.57 807.356ZM1396.9 760.58C1392.47 764.633 1377.22 777.697 1356.23 786.087C1346.02 790.166 1329.84 792.871 1295.03 777.455C1267.14 765.104 1236.77 758.802 1228.7 757.26L1227.55 750.289C1237.12 751.467 1267.5 755.762 1308.29 766.99C1324.55 771.463 1336.93 771.212 1345.08 766.241C1351.26 762.476 1353.89 756.774 1355.43 752.667L1391.06 755.286C1393.39 755.457 1395.52 757.129 1396.49 759.544L1396.9 760.58L1396.9 760.58Z" fill="#9E0C26" fill-opacity="0.03"/>
</g>
<g clip-path="url(#clip1_189_694)" id="dress">
<path d="M1541.44 4936.15C1541.35 4936 1541.22 4935.87 1541.08 4935.77C1540.93 4935.66 1540.76 4935.6 1540.59 4935.56C1540.41 4935.53 1540.23 4935.53 1540.05 4935.57C1539.87 4935.61 1539.7 4935.68 1539.54 4935.79C1535.58 4938.45 1528.63 4938.42 1522.07 4932.32C1521.94 4932.19 1521.79 4932.1 1521.62 4932.03C1521.45 4931.97 1521.27 4931.95 1521.08 4931.96C1520.9 4931.98 1520.72 4932.03 1520.55 4932.11C1520.39 4932.2 1520.24 4932.32 1520.11 4932.46C1519.99 4932.6 1519.89 4932.76 1519.82 4932.93C1519.75 4933.11 1519.72 4933.29 1519.72 4933.47C1519.73 4933.66 1519.76 4933.84 1519.84 4934C1519.91 4934.16 1520.01 4934.31 1520.14 4934.43C1520.66 4934.91 1521.18 4935.36 1521.71 4935.77C1528.9 4941.47 1536.43 4941.14 1540.98 4938.09C1541.29 4937.88 1541.52 4937.56 1541.6 4937.19C1541.69 4936.83 1541.63 4936.45 1541.44 4936.15Z" fill="#5C2483" fill-opacity="0.04"/>
<path d="M1565.18 4964.08C1565.05 4963.95 1564.9 4963.86 1564.73 4963.8C1564.56 4963.74 1564.38 4963.71 1564.2 4963.73C1564.02 4963.74 1563.84 4963.79 1563.67 4963.87C1563.5 4963.96 1563.35 4964.07 1563.23 4964.22C1562.97 4964.5 1562.83 4964.86 1562.84 4965.23C1562.84 4965.6 1562.99 4965.95 1563.26 4966.19C1563.78 4966.67 1564.3 4967.12 1564.82 4967.53C1572.01 4973.23 1579.55 4972.89 1584.1 4969.85C1584.26 4969.75 1584.4 4969.62 1584.52 4969.47C1584.63 4969.31 1584.72 4969.14 1584.77 4968.95C1584.81 4968.76 1584.83 4968.57 1584.8 4968.39C1584.77 4968.2 1584.71 4968.03 1584.61 4967.87C1584.51 4967.71 1584.38 4967.58 1584.23 4967.48C1584.08 4967.38 1583.91 4967.31 1583.73 4967.28C1583.54 4967.25 1583.35 4967.26 1583.17 4967.3C1582.99 4967.35 1582.81 4967.43 1582.66 4967.54C1578.7 4970.21 1571.73 4970.17 1565.18 4964.08Z" fill="#5C2483" fill-opacity="0.04"/>
<path d="M1603.45 4963.58C1603.58 4963.4 1603.67 4963.19 1603.71 4962.97C1603.77 4962.63 1609.13 4929.38 1609.91 4915.16C1610.27 4913.02 1610.13 4910.84 1609.5 4908.82C1608.87 4906.79 1607.77 4904.97 1606.3 4903.5C1605.18 4902.71 1603.89 4902.19 1602.52 4901.97C1601.15 4901.75 1599.73 4901.84 1598.37 4902.23C1598.19 4902.29 1598.03 4902.38 1597.88 4902.49C1597.73 4902.61 1597.61 4902.75 1597.52 4902.92C1597.43 4903.08 1597.36 4903.26 1597.34 4903.44C1597.31 4903.62 1597.32 4903.81 1597.36 4903.98C1597.41 4904.16 1597.49 4904.32 1597.59 4904.46C1597.7 4904.61 1597.84 4904.72 1597.99 4904.81C1598.15 4904.89 1598.32 4904.95 1598.5 4904.96C1598.68 4904.98 1598.86 4904.96 1599.04 4904.91C1599.99 4904.65 1600.97 4904.59 1601.92 4904.74C1602.87 4904.89 1603.77 4905.24 1604.56 4905.77C1605.65 4907.01 1606.44 4908.49 1606.89 4910.12C1607.34 4911.74 1607.43 4913.46 1607.15 4915.16C1606.51 4926.85 1602.72 4951.63 1601.42 4959.88C1594.53 4953.23 1570.97 4932.63 1553.96 4942.72L1549.34 4939.06C1555.34 4920.23 1529.85 4901.96 1521.79 4896.76C1529.52 4893.62 1552.78 4884.28 1564.02 4880.97C1568.5 4879.66 1571.77 4879.79 1573.74 4881.35L1573.76 4881.36C1574.46 4882 1575 4882.8 1575.36 4883.69C1575.73 4884.58 1575.89 4885.55 1575.86 4886.53C1575.83 4886.9 1575.95 4887.26 1576.19 4887.53C1576.43 4887.79 1576.77 4887.95 1577.14 4887.95C1577.5 4887.96 1577.86 4887.82 1578.14 4887.56C1578.42 4887.3 1578.59 4886.95 1578.61 4886.57C1578.68 4885.16 1578.44 4883.76 1577.92 4882.48C1577.39 4881.19 1576.59 4880.06 1575.57 4879.15C1573.8 4878.04 1571.78 4877.39 1569.66 4877.24C1567.54 4877.09 1565.4 4877.45 1563.39 4878.29C1549.72 4882.3 1518.57 4895.11 1518.26 4895.24C1518.06 4895.33 1517.87 4895.46 1517.73 4895.64L1517.7 4895.67C1506.58 4908.99 1500.81 4929.07 1514.42 4941.67C1515.13 4942.34 1515.86 4942.96 1516.6 4943.55C1519.42 4946.07 1522.79 4947.89 1526.47 4948.88C1530.16 4949.87 1534.06 4950 1537.89 4949.27C1539.99 4948.79 1541.99 4947.88 1543.76 4946.59C1545.53 4945.3 1547.03 4943.66 1548.17 4941.78L1551.6 4944.49C1550.02 4946.03 1548.77 4947.87 1547.92 4949.89C1547.06 4951.91 1546.63 4954.06 1546.65 4956.22C1546.81 4960.11 1547.83 4963.87 1549.63 4967.23C1551.44 4970.59 1553.98 4973.46 1557.07 4975.63C1557.81 4976.21 1558.59 4976.78 1559.39 4977.32C1574.77 4987.69 1593 4977.49 1603.43 4963.62L1603.45 4963.58ZM1537.36 4946.55C1533.47 4947.17 1529.53 4946.86 1525.88 4945.65C1522.23 4944.43 1518.95 4942.35 1516.33 4939.55C1504.27 4928.38 1508.89 4911.02 1518.97 4898.36C1524.73 4901.98 1553.29 4921.08 1546.48 4939.11C1545.64 4940.98 1544.37 4942.64 1542.78 4943.94C1541.19 4945.24 1539.33 4946.13 1537.36 4946.55ZM1561.01 4974.97C1557.69 4973.05 1554.91 4970.34 1552.9 4967.06C1550.88 4963.78 1549.68 4960.02 1549.4 4956.09C1549.35 4954.09 1549.79 4952.08 1550.68 4950.25C1551.57 4948.41 1552.88 4946.8 1554.5 4945.55C1565.95 4937.85 1582.05 4947.61 1592.08 4955.56C1596.08 4958.74 1599.12 4961.63 1600.51 4962.99C1590.49 4975.69 1574.65 4984.16 1561.01 4974.97Z" fill="#5C2483" fill-opacity="0.04"/>
</g>
<path d="M1024.32 4400.93C1086.74 4307 1132.39 4176.43 1153.83 4038.98C1158.33 4021.53 1157.09 4016.8 1157.15 4014.24L1113.87 4002.89C1113.67 4011.12 1100.5 4053.15 1094.68 4063.25C1034.5 4167.68 916.213 4222.83 816.56 4250.39C807.123 4223.17 788.235 4199.33 761.166 4184.3C701.055 4150.93 623.719 4173.5 588.439 4234.72C553.139 4295.98 573.269 4372.66 633.38 4406.04C693.492 4439.41 770.843 4416.85 806.143 4355.59C817.924 4335.15 823.397 4312.97 823.391 4291.27C913.119 4262.87 1014.23 4212.64 1087 4137.99C1066.36 4230.85 1034.44 4308.15 991.405 4369.26C989.087 4367.74 986.789 4366.2 984.339 4364.84C924.228 4331.46 846.876 4354.03 811.586 4415.26C776.296 4476.5 796.444 4553.2 856.554 4586.57C916.664 4619.94 994.001 4597.37 1029.29 4536.13C1054.9 4491.7 1051.21 4439.21 1024.32 4400.93ZM669.336 4263.01C654.434 4254.74 649.433 4235.74 658.19 4220.55C666.926 4205.39 686.1 4199.79 701.002 4208.06C715.904 4216.34 720.912 4235.36 712.176 4250.52C703.419 4265.71 684.238 4271.28 669.336 4263.01ZM890.018 4458.09C873.505 4448.92 867.963 4427.86 877.665 4411.03C887.347 4394.23 908.599 4388.02 925.111 4397.19C941.624 4406.36 947.139 4427.42 937.457 4444.22C927.755 4461.06 906.531 4467.25 890.018 4458.09Z" fill="#A50716" fill-opacity="0.02"/>
<g clip-path="url(#clip2_189_694)">
<path d="M1333.51 3530.55C1333.51 3529.35 1333.74 3528.2 1334.2 3527.13C1334.65 3526.07 1335.32 3525.09 1336.19 3524.27L1359.11 3502.37C1361.09 3500.48 1362.6 3498.28 1363.6 3495.91C1366.41 3489.34 1365.43 3481.43 1360.55 3474.9L1340.18 3447.69C1338.65 3445.64 1337.94 3443.19 1338.19 3440.83L1341.55 3409.55C1342.61 3399.69 1336.26 3389.9 1326.17 3385.6C1325.79 3385.44 1325.41 3385.28 1325.02 3385.14L1292.25 3372.85L1291.68 3372.62C1289.4 3371.65 1287.49 3370.03 1286.26 3368.01L1268.77 3339.3C1265.93 3334.62 1261.55 3331.01 1256.58 3328.89C1251.61 3326.77 1245.97 3326.11 1240.62 3327.3L1207.8 3334.56C1205.49 3335.07 1202.99 3334.82 1200.72 3333.85L1200.21 3333.62L1168.45 3318.38L1168.65 3318.48C1168.21 3318.26 1167.82 3318.09 1167.48 3317.95C1157.39 3313.64 1145.93 3315.84 1139.55 3323.43L1119.3 3347.51C1117.78 3349.33 1115.52 3350.52 1112.98 3350.83L1079.25 3354.97C1071.15 3355.97 1064.76 3360.75 1061.96 3367.32C1060.95 3369.69 1060.41 3372.3 1060.41 3375.03L1060.49 3406.73C1060.5 3407.93 1060.26 3409.09 1059.8 3410.15C1059.35 3411.22 1058.68 3412.19 1057.81 3413.02L1034.89 3434.91C1032.91 3436.8 1031.41 3439 1030.4 3441.37C1027.59 3447.94 1028.57 3455.86 1033.45 3462.39L1053.82 3489.6C1055.35 3491.65 1056.06 3494.09 1055.81 3496.46L1052.45 3527.73C1051.4 3537.59 1057.74 3547.38 1067.83 3551.68C1068.18 3551.83 1068.55 3551.99 1068.96 3552.14L1070.01 3552.53L1101.83 3564.46L1101.9 3564.48L1102.34 3564.66C1104.6 3565.63 1106.51 3567.25 1107.74 3569.28L1125.22 3597.99C1128.07 3602.67 1132.45 3606.28 1137.43 3608.4C1142.39 3610.52 1148.03 3611.18 1153.38 3609.99L1186.2 3602.73C1188.52 3602.21 1191.01 3602.46 1193.27 3603.43L1193.75 3603.65L1194.31 3603.91L1225.26 3618.76L1225.47 3618.86C1225.8 3619.02 1226.15 3619.17 1226.53 3619.33C1236.61 3623.63 1248.07 3621.44 1254.46 3613.85L1274.7 3589.77C1276.22 3587.95 1278.48 3586.77 1281.02 3586.46L1314.75 3582.31C1322.85 3581.31 1329.24 3576.54 1332.03 3569.96C1333.05 3567.6 1333.59 3564.98 1333.58 3562.25L1333.51 3530.55ZM1311.88 3570.11L1278.15 3574.26C1272.4 3574.96 1267.32 3577.62 1263.87 3581.73L1243.62 3605.81C1240.81 3609.18 1235.71 3610.15 1231.26 3608.25L1230.71 3608L1199.11 3592.84L1199.13 3592.85C1198.77 3592.67 1198.4 3592.5 1198 3592.33C1192.89 3590.15 1187.25 3589.59 1182.04 3590.74L1149.22 3598.01C1146.84 3598.53 1144.37 3598.25 1142.15 3597.3C1139.93 3596.36 1138.02 3594.78 1136.75 3592.69L1119.26 3563.98C1116.49 3559.42 1112.18 3555.75 1107.07 3553.57C1106.73 3553.43 1106.35 3553.27 1105.93 3553.12L1105.93 3553.12L1073.06 3540.79L1073.07 3540.8L1072.56 3540.59C1068.11 3538.69 1065.28 3534.35 1065.75 3529.98L1069.11 3498.7C1069.68 3493.37 1068.08 3487.86 1064.61 3483.22L1044.25 3456.02C1042.08 3453.13 1041.65 3449.62 1042.89 3446.7C1043.34 3445.65 1044 3444.69 1044.88 3443.84L1067.81 3421.95C1069.76 3420.08 1071.28 3417.89 1072.3 3415.48C1073.33 3413.08 1073.86 3410.46 1073.85 3407.76L1073.77 3376.06C1073.78 3374.84 1074.02 3373.7 1074.46 3372.65C1075.71 3369.73 1078.53 3367.61 1082.12 3367.18L1115.85 3363.03C1121.6 3362.32 1126.69 3359.66 1130.14 3355.56L1150.38 3331.47C1153.2 3328.11 1158.29 3327.14 1162.75 3329.04L1163.18 3329.23L1163.31 3329.3L1194.89 3344.45L1194.92 3344.46L1195.99 3344.94C1201.1 3347.13 1206.74 3347.69 1211.96 3346.55L1244.78 3339.28L1242.7 3333.29L1244.78 3339.28C1247.17 3338.75 1249.63 3339.04 1251.85 3339.99C1254.07 3340.93 1255.98 3342.51 1257.25 3344.59L1274.74 3373.31C1277.52 3377.88 1281.84 3381.54 1286.95 3383.72C1287.33 3383.88 1287.68 3384.02 1287.99 3384.14L1288.11 3384.19L1320.36 3396.28L1320.96 3396.5L1321.44 3396.7C1325.9 3398.59 1328.73 3402.94 1328.25 3407.3L1324.89 3438.58C1324.32 3443.91 1325.92 3449.42 1329.39 3454.06L1349.75 3481.27C1351.92 3484.16 1352.35 3487.67 1351.11 3490.58C1350.66 3491.63 1350 3492.6 1349.11 3493.45L1326.2 3515.34C1324.24 3517.2 1322.73 3519.4 1321.7 3521.8C1320.68 3524.21 1320.14 3526.83 1320.15 3529.53L1320.22 3561.22C1320.23 3562.45 1319.98 3563.59 1319.54 3564.64C1318.29 3567.55 1315.47 3569.67 1311.88 3570.11Z" fill="#F39200" fill-opacity="0.03"/>
<path d="M1183.22 3444.3C1183.14 3443.86 1182.9 3443.52 1182.37 3443.4L1172.93 3441.18C1172.41 3441.06 1172.06 3441.26 1171.83 3441.63L1145.93 3482.24C1145.7 3482.61 1145.8 3482.92 1146.33 3483.04L1156.14 3485.34C1156.67 3485.46 1157 3485.33 1157.24 3484.89L1161.6 3477.5L1179.43 3481.68L1180.84 3490.42C1180.9 3490.93 1181.17 3491.2 1181.69 3491.33L1191.43 3493.61C1191.95 3493.73 1192.15 3493.49 1192.08 3493.05L1183.22 3444.3ZM1166.25 3469.75L1175.04 3454.97L1175.26 3455.02L1178.02 3472.5L1166.25 3469.75Z" fill="#F39200" fill-opacity="0.03"/>
<path d="M1131.35 3450.61L1128.72 3449.64C1123 3447.52 1121.23 3445.33 1121.72 3442.69C1122.27 3439.78 1124.98 3438.22 1129.48 3439.28C1133.67 3440.26 1137.19 3442.36 1140.66 3445.57C1140.99 3445.86 1141.38 3445.88 1141.74 3445.61L1147.47 3440.52C1147.93 3440.13 1147.91 3439.85 1147.51 3439.47C1143.79 3435.49 1137.84 3432.18 1131.1 3430.61C1120.09 3428.02 1112 3432 1110.41 3440.47C1108.89 3448.6 1113.83 3454.35 1123.93 3458.06L1126.57 3459.03C1132.49 3461.2 1133.97 3463.31 1133.47 3466.03C1132.86 3469.28 1129.44 3470.81 1124.12 3469.56C1118.73 3468.3 1114.59 3464.93 1111.67 3461.69C1111.35 3461.34 1110.9 3461.23 1110.54 3461.5L1103.74 3466.06C1103.29 3466.38 1103.35 3466.89 1103.6 3467.23C1106.92 3471.62 1114.11 3476.27 1122.05 3478.13C1135.24 3481.22 1143.21 3476.65 1144.77 3468.32C1146.33 3459.99 1141.59 3454.35 1131.35 3450.61Z" fill="#F39200" fill-opacity="0.03"/>
<path d="M1234.98 3494.55L1212.5 3489.28C1212.21 3489.21 1212.08 3489.04 1212.13 3488.77L1218.88 3452.66C1218.96 3452.25 1218.72 3451.91 1218.27 3451.81L1208.75 3449.58C1208.3 3449.47 1207.95 3449.67 1207.87 3450.08L1199.5 3494.79C1199.43 3495.2 1199.68 3495.54 1200.13 3495.65L1233.32 3503.42C1233.77 3503.53 1234.12 3503.33 1234.2 3502.92L1235.61 3495.4C1235.68 3494.99 1235.43 3494.66 1234.98 3494.55Z" fill="#F39200" fill-opacity="0.03"/>
<path d="M1275.63 3504.35L1253.68 3499.21C1253.38 3499.14 1253.25 3498.97 1253.3 3498.7L1255.09 3489.14C1255.14 3488.87 1255.31 3488.77 1255.61 3488.84L1273.9 3493.13C1274.34 3493.23 1274.69 3493.03 1274.77 3492.62L1276.11 3485.44C1276.19 3485.04 1275.94 3484.7 1275.49 3484.59L1257.21 3480.31C1256.91 3480.24 1256.79 3480.07 1256.83 3479.8L1258.55 3470.65C1258.6 3470.38 1258.78 3470.28 1259.07 3470.35L1281.03 3475.49C1281.48 3475.6 1281.82 3475.39 1281.9 3474.99L1283.26 3467.74C1283.33 3467.33 1283.09 3466.99 1282.64 3466.89L1249.97 3459.23C1249.52 3459.13 1249.17 3459.33 1249.1 3459.74L1240.73 3504.45C1240.65 3504.86 1240.9 3505.2 1241.35 3505.31L1274.02 3512.96C1274.46 3513.06 1274.81 3512.86 1274.89 3512.46L1276.25 3505.21C1276.32 3504.8 1276.08 3504.45 1275.63 3504.35Z" fill="#F39200" fill-opacity="0.03"/>
</g>
<g clip-path="url(#clip3_189_694)">
<path d="M140.76 3799.29C140.729 3798.52 140.866 3797.79 141.154 3797.11C141.442 3796.44 141.88 3795.82 142.457 3795.31L157.71 3781.75C159.027 3780.58 160.014 3779.2 160.652 3777.7C162.43 3773.54 161.576 3768.42 158.069 3764.11L143.445 3746.14C142.343 3744.78 141.798 3743.19 141.919 3741.68L143.512 3721.63C144.009 3715.31 139.423 3708.87 132.388 3705.87C132.125 3705.76 131.859 3705.65 131.587 3705.55L108.775 3696.89L108.378 3696.73C106.793 3696.06 105.444 3694.97 104.548 3693.64L91.8694 3674.77C89.8064 3671.69 86.7164 3669.27 83.2495 3667.79C79.7818 3666.31 75.8938 3665.76 72.2379 3666.4L49.8471 3670.32C48.2717 3670.59 46.5491 3670.37 44.9637 3669.7L44.6091 3669.54L22.4253 3659.01L22.5639 3659.07C22.2611 3658.93 21.9873 3658.81 21.7464 3658.7C14.7123 3655.7 6.88723 3656.86 2.67481 3661.59L-10.6887 3676.62C-11.695 3677.75 -13.2211 3678.46 -14.9613 3678.61L-38.0542 3680.5C-43.5946 3680.96 -47.8781 3683.88 -49.6506 3688.05C-50.2905 3689.55 -50.6053 3691.21 -50.5407 3692.97L-49.7576 3713.37C-49.7271 3714.14 -49.8645 3714.88 -50.1523 3715.55C-50.4391 3716.23 -50.8783 3716.84 -51.455 3717.35L-66.711 3730.91C-68.0262 3732.08 -69.0107 3733.46 -69.6506 3734.96C-71.4285 3739.12 -70.5758 3744.24 -67.0676 3748.56L-52.4439 3766.53C-51.3416 3767.88 -50.7954 3769.47 -50.9173 3770.98L-52.5077 3791.03C-53.0058 3797.35 -48.4191 3803.79 -41.3891 3806.79C-41.1441 3806.89 -40.8821 3807 -40.602 3807.11L-39.8661 3807.39L-17.7179 3815.79L-17.6744 3815.81L-17.3658 3815.93C-15.789 3816.61 -14.4425 3817.69 -13.5486 3819.03L-0.870296 3837.9C1.19635 3840.98 4.28633 3843.4 7.75617 3844.88C11.221 3846.36 15.1089 3846.91 18.7597 3846.27L41.155 3842.35C42.7353 3842.07 44.4516 3842.29 46.028 3842.96L46.3629 3843.11L46.7531 3843.3L68.371 3853.56L68.5185 3853.63C68.7479 3853.74 68.9931 3853.85 69.2568 3853.96C76.2879 3856.96 84.1149 3855.81 88.3297 3851.07L101.691 3836.04C102.698 3834.91 104.222 3834.2 105.959 3834.06L129.055 3832.17C134.597 3831.71 138.878 3828.78 140.65 3824.62C141.293 3823.12 141.605 3821.45 141.538 3819.69L140.76 3799.29ZM126.796 3824.25L103.706 3826.14C99.7719 3826.46 96.3401 3828.06 94.0612 3830.62L80.6996 3845.65C78.8386 3847.75 75.3612 3848.26 72.2525 3846.93L71.8705 3846.76L49.8034 3836.28L49.815 3836.29C49.5648 3836.17 49.3027 3836.05 49.0245 3835.93C45.4631 3834.41 41.5778 3833.92 38.0199 3834.54L15.624 3838.46C13.9986 3838.75 12.2982 3838.51 10.7522 3837.85C9.20364 3837.19 7.85238 3836.13 6.93075 3834.76L-5.74739 3815.88C-7.76079 3812.89 -10.8071 3810.42 -14.3698 3808.91C-14.6026 3808.81 -14.8709 3808.7 -15.1632 3808.59L-15.1622 3808.59L-38.0407 3799.9L-38.0347 3799.91L-38.3912 3799.76C-41.4947 3798.44 -43.5396 3795.58 -43.313 3792.78L-41.7217 3772.74C-41.4508 3769.32 -42.6765 3765.74 -45.171 3762.67L-59.7932 3744.7C-61.3486 3742.79 -61.7222 3740.53 -60.937 3738.68C-60.6541 3738.01 -60.2218 3737.41 -59.6376 3736.89L-44.3812 3723.33C-43.0813 3722.17 -42.0887 3720.79 -41.439 3719.27C-40.7894 3717.75 -40.4827 3716.08 -40.5486 3714.34L-41.331 3693.94C-41.3571 3693.16 -41.2197 3692.42 -40.9367 3691.76C-40.1456 3689.91 -38.2553 3688.62 -35.8004 3688.42L-12.7047 3686.52C-8.76802 3686.2 -5.3364 3684.6 -3.05837 3682.04L10.3037 3667.01C12.1636 3664.92 15.6453 3664.41 18.7499 3665.73L19.0514 3665.87L19.146 3665.91L41.1988 3676.38L41.2186 3676.39L41.9672 3676.73C45.5315 3678.25 49.4168 3678.74 52.9783 3678.12L75.3742 3674.2L73.8099 3670.3L75.3783 3674.2C77.0051 3673.92 78.7045 3674.16 80.2531 3674.82C81.799 3675.48 83.1503 3676.54 84.0715 3677.91L96.7526 3696.78C98.7701 3699.79 101.822 3702.24 105.382 3703.76C105.646 3703.87 105.889 3703.97 106.11 3704.06L106.194 3704.09L128.639 3712.61L129.055 3712.77L129.392 3712.9C132.499 3714.22 134.542 3717.09 134.317 3719.88L132.725 3739.93C132.455 3743.35 133.681 3746.93 136.171 3749.99L150.795 3767.96C152.351 3769.87 152.727 3772.14 151.939 3773.98C151.657 3774.65 151.226 3775.26 150.633 3775.78L135.384 3789.34C134.084 3790.49 133.091 3791.87 132.442 3793.4C131.792 3794.92 131.486 3796.59 131.553 3798.33L132.33 3818.72C132.361 3819.51 132.22 3820.24 131.938 3820.9C131.149 3822.75 129.255 3824.05 126.796 3824.25Z" fill="#F39200" fill-opacity="0.03"/>
<path d="M35.4686 3740.36C35.4068 3740.07 35.2285 3739.84 34.8646 3739.75L28.3237 3738.11C27.9609 3738.02 27.7258 3738.14 27.5775 3738.38L10.7076 3763.91C10.5604 3764.14 10.6362 3764.34 10.9999 3764.43L17.7976 3766.14C18.1611 3766.23 18.3881 3766.15 18.5417 3765.87L21.3672 3761.22L33.7217 3764.31L34.8934 3769.97C34.9458 3770.3 35.1335 3770.48 35.4965 3770.58L42.2441 3772.27C42.6065 3772.36 42.7376 3772.21 42.6778 3771.92L35.4686 3740.36ZM24.3897 3756.34L30.0895 3747.03L30.2467 3747.07L32.541 3758.38L24.3897 3756.34Z" fill="#F39200" fill-opacity="0.03"/>
<path d="M-0.0453761 3743.22L-1.87465 3742.54C-5.8509 3741.04 -7.12073 3739.6 -6.84071 3737.91C-6.5329 3736.05 -4.70443 3735.11 -1.58868 3735.89C1.31561 3736.62 3.78257 3738.05 6.2418 3740.2C6.47441 3740.39 6.74295 3740.41 6.98429 3740.25L10.8057 3737.1C11.1155 3736.86 11.0925 3736.68 10.8086 3736.43C8.16524 3733.78 3.99933 3731.52 -0.670761 3730.35C-8.30078 3728.43 -13.7736 3730.81 -14.6699 3736.22C-15.528 3741.42 -11.9978 3745.23 -4.96996 3747.85L-3.13767 3748.53C0.983327 3750.06 2.05143 3751.46 1.76802 3753.19C1.42233 3755.27 -0.891951 3756.18 -4.57416 3755.25C-8.31094 3754.32 -11.2361 3752.05 -13.3146 3749.9C-13.5417 3749.67 -13.8535 3749.59 -14.0995 3749.75L-18.6654 3752.53C-18.9714 3752.72 -18.9154 3753.06 -18.7363 3753.28C-16.3514 3756.18 -11.3065 3759.34 -5.80308 3760.71C3.33228 3763.01 8.70755 3760.25 9.58959 3754.92C10.4686 3749.6 7.08271 3745.87 -0.0453761 3743.22Z" fill="#F39200" fill-opacity="0.03"/>
<path d="M72.1998 3773.87L56.6293 3769.97C56.4237 3769.92 56.3348 3769.8 56.3613 3769.63L60.1764 3746.55C60.2212 3746.29 60.0451 3746.07 59.7322 3745.99L53.1401 3744.34C52.8283 3744.26 52.5896 3744.38 52.5449 3744.64L47.8211 3773.21C47.7812 3773.47 47.9594 3773.7 48.2708 3773.78L71.2639 3779.54C71.5784 3779.62 71.8115 3779.5 71.8553 3779.24L72.651 3774.43C72.695 3774.17 72.5153 3773.95 72.1998 3773.87Z" fill="#F39200" fill-opacity="0.03"/>
<path d="M100.37 3781.11L85.1603 3777.3C84.9537 3777.25 84.8609 3777.13 84.8904 3776.96L85.9019 3770.85C85.9284 3770.68 86.0478 3770.62 86.2543 3770.67L98.9202 3773.85C99.2291 3773.93 99.4678 3773.81 99.5086 3773.55L100.268 3768.96C100.311 3768.7 100.129 3768.47 99.8205 3768.4L87.1571 3765.22C86.9507 3765.17 86.8588 3765.05 86.8857 3764.88L87.8525 3759.04C87.8839 3758.86 88.0023 3758.8 88.2088 3758.85L103.419 3762.67C103.728 3762.74 103.964 3762.62 104.008 3762.36L104.775 3757.73C104.817 3757.47 104.638 3757.25 104.328 3757.17L81.696 3751.49C81.3836 3751.42 81.1486 3751.54 81.1068 3751.8L76.3804 3780.37C76.3365 3780.63 76.5147 3780.86 76.8272 3780.94L99.459 3786.61C99.7688 3786.69 100.004 3786.57 100.048 3786.31L100.816 3781.68C100.857 3781.41 100.679 3781.19 100.37 3781.11Z" fill="#F39200" fill-opacity="0.03"/>
</g>
<g clip-path="url(#clip4_189_694)">
<path fill-rule="evenodd" clip-rule="evenodd" d="M431.362 448.508L131.526 336.535C123.155 333.409 115.955 328.194 111.51 322.037C107.065 315.88 105.738 309.285 107.823 303.704L186.538 189.225C198.65 173.114 215.449 176.042 232.879 182.552L253.804 190.366C279.354 158.256 325.284 145.122 367.892 161.034C410.5 176.946 436.578 216.971 434.826 257.968L455.751 265.783C473.181 272.292 487.795 281.095 486.374 301.198L470.782 439.25C468.698 444.832 463.374 448.942 455.981 450.679C448.588 452.415 439.732 451.634 431.362 448.508ZM363.962 171.557C329.623 158.733 292.275 169.831 270.003 196.416L418.635 251.922C419.232 217.243 398.309 184.383 363.962 171.557ZM470.593 295.305C470.998 293.727 470.934 292.017 470.407 290.276C469.879 288.534 468.898 286.796 467.521 285.164C466.144 283.532 464.4 282.04 462.39 280.775C460.381 279.51 458.148 278.498 455.822 277.799L433.492 269.46C432.559 275.075 431.118 280.543 429.176 285.832C428.655 287.228 427.324 288.255 425.476 288.69C423.628 289.124 421.414 288.928 419.321 288.147C417.229 287.365 415.429 286.062 414.317 284.522C413.206 282.983 412.874 281.334 413.396 279.939C415.375 274.663 416.817 269.193 417.712 263.567L263.059 205.812C260.05 210.65 257.554 215.726 255.587 221.006C255.066 222.401 253.735 223.429 251.887 223.863C250.039 224.297 247.825 224.102 245.732 223.32C243.639 222.539 241.839 221.235 240.728 219.696C239.617 218.157 239.285 216.508 239.806 215.113C241.811 209.847 244.306 204.773 247.279 199.919L224.941 191.577C222.727 190.581 220.377 189.883 218.032 189.522C215.686 189.161 213.391 189.145 211.283 189.475C209.174 189.805 207.295 190.474 205.755 191.444C204.216 192.413 203.047 193.662 202.319 195.118L123.604 309.597C122.561 312.388 123.225 315.685 125.447 318.764C127.67 321.842 131.27 324.45 135.455 326.013L435.291 437.986C439.476 439.549 443.904 439.939 447.601 439.071C451.297 438.203 453.959 436.148 455.001 433.357L470.593 295.305Z" fill="#F39200" fill-opacity="0.04"/>
</g>
<g clip-path="url(#clip5_189_694)">
<path fill-rule="evenodd" clip-rule="evenodd" d="M801.801 1575.59L472.788 1452.72C463.603 1449.29 455.702 1443.57 450.825 1436.81C445.947 1430.05 444.492 1422.82 446.779 1416.69L533.154 1291.07C546.445 1273.4 564.878 1276.61 584.004 1283.75L606.965 1292.33C635.001 1257.09 685.4 1242.68 732.155 1260.14C778.909 1277.6 807.525 1321.52 805.602 1366.51L828.564 1375.08C847.69 1382.22 863.725 1391.88 862.166 1413.94L845.057 1565.43C842.77 1571.55 836.928 1576.06 828.816 1577.97C820.703 1579.88 810.986 1579.02 801.801 1575.59ZM727.843 1271.69C690.162 1257.62 649.18 1269.79 624.741 1298.97L787.836 1359.87C788.491 1321.82 765.532 1285.76 727.843 1271.69ZM844.85 1407.48C845.294 1405.75 845.224 1403.87 844.645 1401.96C844.066 1400.05 842.99 1398.14 841.479 1396.35C839.968 1394.56 838.054 1392.92 835.849 1391.53C833.644 1390.15 831.194 1389.03 828.642 1388.27L804.139 1379.12C803.115 1385.28 801.533 1391.28 799.403 1397.08C798.831 1398.61 797.371 1399.74 795.342 1400.22C793.314 1400.69 790.885 1400.48 788.589 1399.62C786.292 1398.77 784.317 1397.33 783.098 1395.65C781.878 1393.96 781.515 1392.15 782.086 1390.62C784.259 1384.83 785.841 1378.82 786.823 1372.65L617.121 1309.28C613.82 1314.58 611.08 1320.15 608.922 1325.95C608.35 1327.48 606.89 1328.61 604.862 1329.08C602.833 1329.56 600.404 1329.35 598.108 1328.49C595.811 1327.63 593.836 1326.2 592.617 1324.51C591.398 1322.82 591.034 1321.01 591.605 1319.48C593.805 1313.7 596.544 1308.14 599.805 1302.81L575.293 1293.66C572.864 1292.56 570.286 1291.8 567.712 1291.4C565.138 1291 562.62 1290.99 560.306 1291.35C557.992 1291.71 555.93 1292.45 554.241 1293.51C552.552 1294.57 551.269 1295.94 550.47 1297.54L464.095 1423.16C462.952 1426.22 463.679 1429.84 466.118 1433.22C468.557 1436.6 472.507 1439.46 477.1 1441.17L806.113 1564.04C810.705 1565.76 815.564 1566.19 819.62 1565.23C823.676 1564.28 826.597 1562.03 827.741 1558.96L844.85 1407.48Z" fill="#9E0C26" fill-opacity="0.02"/>
</g>
<path d="M1530.55 2071.33C1506.48 2022.54 1463.51 1970.97 1412.1 1927.19C1405.98 1920.94 1403.75 1920.21 1402.72 1919.53L1388.03 1933.72C1391.36 1935.92 1405.55 1951.92 1408.35 1956.81C1437.24 2007.41 1432.45 2068.33 1420.67 2114.79C1407.32 2111.53 1393.16 2112.87 1380.73 2119.71C1353.11 2134.9 1344.45 2171.27 1361.39 2200.93C1378.33 2230.61 1414.45 2242.35 1442.07 2227.16C1469.69 2211.98 1478.35 2175.61 1461.41 2145.93C1455.75 2136.02 1447.92 2128.16 1439.02 2122.59C1448.16 2079.83 1450.98 2026.97 1437.23 1979.04C1470.53 2011.04 1494.84 2043.51 1509.93 2076.21C1508.78 2076.74 1507.61 2077.25 1506.48 2077.87C1478.87 2093.06 1470.2 2129.42 1487.14 2159.1C1504.08 2188.77 1540.21 2200.5 1567.83 2185.32C1595.44 2170.13 1604.1 2133.77 1587.16 2104.09C1574.87 2082.56 1552.48 2070.54 1530.55 2071.33ZM1391.73 2176.22C1384.89 2179.99 1375.94 2177.09 1371.73 2169.72C1367.54 2162.38 1369.69 2153.36 1376.53 2149.6C1383.38 2145.83 1392.34 2148.74 1396.54 2156.08C1400.74 2163.44 1398.58 2172.46 1391.73 2176.22ZM1522.88 2139.1C1515.29 2143.27 1505.37 2140.05 1500.71 2131.89C1496.07 2123.75 1498.45 2113.76 1506.03 2109.59C1513.62 2105.41 1523.54 2108.64 1528.18 2116.79C1532.84 2124.94 1530.46 2134.92 1522.88 2139.1Z" fill="#A50716" fill-opacity="0.05"/>
<g clip-path="url(#clip6_189_694)">
<path d="M68.8936 4315.06C68.8936 4315.06 58.6484 4286.12 53.4327 4265.22C52.9865 4263.85 52.7168 4262.79 52.1869 4261.88C51.2108 4259.61 50.2346 4257.34 48.8215 4254.92C43.8757 4246.43 28.3971 4239.63 22.6707 4242.97C15.6428 4247.07 10.8554 4259.2 8.05746 4269.35C7.46254 4271.32 5.90078 4272.23 3.89276 4271.78C-6.06366 4269.06 -18.4557 4266.95 -26.2645 4271.51C-31.991 4274.85 -33.6918 4291.67 -28.746 4300.15C-25.3899 4305.91 -21.9594 4309.99 -18.278 4312.72C-3.70106 4326.95 12.4843 4346.33 13.4511 4347.39C10.6998 4363.6 41.9472 4471.62 41.9472 4471.62C41.9472 4471.62 54.2836 4477.82 82.8788 4467.64L81.5494 4464.76L87.5455 4462.48L88.8749 4465.36C95.9121 4462.47 103.814 4458.68 112.664 4453.51C121.514 4448.35 128.709 4443.35 134.687 4438.64L132.837 4436.07L137.773 4431.97L139.623 4434.55C163.003 4414.82 163.244 4400.88 163.244 4400.88C163.244 4400.88 83.3124 4320.04 68.8936 4315.06Z" fill="#213A8F" fill-opacity="0.04"/>
<path d="M44.4812 4336.6C25.2195 4347.83 14.4265 4349.66 13.7293 4349.66C11.554 4350.12 7.30535 4341.64 9.48068 4341.18C9.48068 4341.18 21.3148 4338.74 39.5354 4328.12C57.7559 4317.49 65.0998 4309.15 65.0998 4309.15C66.5686 4307.48 71.942 4314.9 70.6499 4316.87C70.3896 4317.02 64.0032 4325.21 44.4812 4336.6ZM47.4848 4375.84C45.4025 4377.06 82.7014 4467.33 82.7014 4467.33L88.5208 4464.75C88.5208 4464.75 49.5672 4374.63 47.4848 4375.84ZM77.1583 4358.54C79.2406 4357.32 139.445 4434.24 139.445 4434.24L134.332 4438.04C134.332 4438.04 75.0759 4359.75 77.1583 4358.54ZM23.7111 4242.36L14.1727 4226.01C12.7596 4223.58 13.2615 4220.86 15.3439 4219.64C17.4262 4218.43 20.0478 4219.33 21.4609 4221.76L34.3554 4243.87C30.2464 4242.21 26.407 4241.6 23.7111 4242.36ZM-31.1549 4281.67L-43.8728 4259.86C-45.2859 4257.43 -44.7839 4254.71 -42.7016 4253.49C-40.6192 4252.28 -37.9977 4253.18 -36.5846 4255.61L-27.0462 4271.96C-29.2122 4273.63 -30.8389 4277.42 -31.1549 4281.67Z" fill="#213A8F" fill-opacity="0.04"/>
</g>
<g clip-path="url(#clip7_189_694)">
<path d="M1702.06 1136.91C1702.06 1136.91 1720.2 1116.44 1734.77 1103.5C1735.65 1102.57 1736.39 1101.91 1736.82 1101.09C1738.13 1099.34 1739.44 1097.58 1740.58 1095.39C1744.6 1087.74 1740.14 1071.79 1733.42 1068.27C1725.19 1063.94 1711.51 1064.79 1700.87 1066.53C1698.77 1066.82 1696.94 1065.86 1695.99 1063.96C1691.68 1054.38 1685.22 1042.96 1676.07 1038.16C1669.36 1034.64 1653.7 1040.02 1649.68 1047.67C1646.95 1052.87 1645.71 1057.45 1645.82 1061.69C1643.27 1079.89 1637.35 1101.55 1637.08 1102.8C1621.24 1107.04 1548.83 1177.52 1548.83 1177.52C1548.83 1177.52 1551.72 1190.54 1579.63 1210.77L1581.22 1208.47L1587.2 1212.66L1585.6 1214.96C1592.8 1219.78 1601.36 1224.97 1611.73 1230.42C1622.1 1235.86 1631.24 1239.96 1639.29 1243.14L1640.28 1240.52L1647.12 1243.06L1646.13 1245.68C1678.79 1257.59 1690.99 1252.14 1690.99 1252.14C1690.99 1252.14 1707.39 1151.22 1702.06 1136.91Z" fill="#213A8F" fill-opacity="0.06"/>
<path d="M1667.14 1124.86C1644.57 1113.01 1635.77 1104.56 1635.31 1103.96C1633.46 1102.3 1637.94 1095.23 1639.79 1096.9C1639.79 1096.9 1649.8 1105.99 1671.16 1117.2C1692.51 1128.41 1704.63 1131.28 1704.63 1131.28C1707.05 1131.86 1704.23 1139.45 1701.67 1139.15C1701.36 1138.99 1690.02 1136.87 1667.14 1124.86ZM1635.25 1143.35C1632.81 1142.07 1579.77 1210.5 1579.77 1210.5L1585.89 1214.41C1585.89 1214.41 1637.69 1144.63 1635.25 1143.35ZM1670.03 1161.61C1672.47 1162.89 1646.28 1245.41 1646.28 1245.41L1639.58 1242.59C1639.58 1242.59 1667.59 1160.33 1670.03 1161.61ZM1734.65 1068.91L1742.4 1054.14C1743.55 1051.95 1746.24 1051.27 1748.68 1052.55C1751.12 1053.83 1752.09 1056.44 1750.94 1058.62L1740.46 1078.59C1739.15 1074.41 1737.1 1070.89 1734.65 1068.91ZM1664.03 1038.12L1674.37 1018.43C1675.52 1016.24 1678.21 1015.56 1680.65 1016.84C1683.09 1018.12 1684.06 1020.72 1682.91 1022.91L1675.16 1037.68C1672.27 1036.51 1667.91 1036.66 1664.03 1038.12Z" fill="#213A8F" fill-opacity="0.06"/>
</g>
<path d="M1646.99 312.522C1680.74 261.945 1704.99 191.376 1715.87 116.906C1718.23 107.466 1717.51 104.892 1717.53 103.501L1693.61 97.0571C1693.56 101.525 1686.59 124.25 1683.45 129.695C1651.01 185.982 1586.23 215.144 1531.53 229.447C1526.15 214.615 1515.58 201.55 1500.57 193.215C1467.23 174.705 1424.79 186.452 1405.77 219.45C1386.74 252.466 1398.35 294.225 1431.69 312.734C1465.03 331.243 1507.48 319.502 1526.51 286.485C1532.86 275.467 1535.72 263.463 1535.57 251.681C1584.8 236.856 1640.16 210.256 1679.73 170.214C1668.99 220.479 1651.94 262.227 1628.65 295.114C1627.36 294.278 1626.08 293.423 1624.73 292.669C1591.39 274.16 1548.93 285.901 1529.91 318.908C1510.89 351.915 1522.51 393.678 1555.85 412.187C1589.18 430.696 1631.63 418.95 1650.65 385.943C1664.45 361.992 1662.07 333.477 1646.99 312.522ZM1450.52 235.335C1442.26 230.746 1439.37 220.403 1444.09 212.213C1448.8 204.042 1459.33 201.129 1467.59 205.718C1475.86 210.306 1478.74 220.665 1474.03 228.836C1469.31 237.025 1458.79 239.923 1450.52 235.335ZM1573.41 342.667C1564.25 337.582 1561.05 326.117 1566.28 317.042C1571.5 307.987 1583.16 304.759 1592.32 309.844C1601.48 314.928 1604.66 326.398 1599.44 335.454C1594.21 344.528 1582.56 347.751 1573.41 342.667Z" fill="#5C2483" fill-opacity="0.06"/>
<path d="M110.216 1287.84C127.011 1262.39 139.672 1227.25 146.087 1190.41C147.361 1185.72 147.068 1184.47 147.099 1183.78L135.923 1181.01C135.819 1183.21 132.141 1194.51 130.566 1197.24C114.289 1225.49 83.2155 1240.91 57.1522 1248.86C54.8667 1241.65 50.1049 1235.39 43.1631 1231.54C27.7478 1222.98 7.51417 1229.47 -2.02829 1246.02C-11.576 1262.59 -6.81486 1282.95 8.6004 1291.51C24.0157 1300.07 44.2534 1293.59 53.8012 1277.02C56.9874 1271.49 58.5455 1265.54 58.677 1259.74C82.1663 1251.63 108.748 1237.61 128.114 1217.25C122.182 1242.17 113.414 1263 101.857 1279.58C101.264 1279.19 100.676 1278.79 100.048 1278.44C84.6328 1269.88 64.3951 1276.36 54.85 1292.92C45.305 1309.49 50.0706 1329.85 65.4856 1338.41C80.9006 1346.97 101.135 1340.49 110.68 1323.92C117.606 1311.9 116.97 1297.91 110.216 1287.84ZM18.8194 1253.1C14.9979 1250.98 13.8147 1245.94 16.183 1241.83C18.5459 1237.73 23.5625 1236.12 27.384 1238.24C31.2056 1240.36 32.3904 1245.41 30.0275 1249.51C27.6591 1253.62 22.6409 1255.22 18.8194 1253.1ZM74.9681 1303.9C70.7334 1301.55 69.4223 1295.96 72.0464 1291.4C74.665 1286.86 80.2252 1285.08 84.4599 1287.43C88.6945 1289.78 89.9985 1295.37 87.3799 1299.92C84.7558 1304.47 79.2027 1306.25 74.9681 1303.9Z" fill="#A50716" fill-opacity="0.02"/>
<g clip-path="url(#clip8_189_694)">
<path d="M55.6914 732.554C55.6914 732.554 71.9186 714.246 84.9529 702.684C85.7393 701.849 86.3975 701.258 86.7826 700.525C87.9542 698.956 89.1258 697.388 90.1528 695.431C93.7472 688.584 89.744 674.317 83.7377 671.164C76.3662 667.295 64.1311 668.047 54.6098 669.599C52.7313 669.861 51.0932 669.001 50.2416 667.306C46.3849 658.731 40.6009 648.521 32.4104 644.221C26.404 641.068 12.388 645.877 8.79358 652.724C6.35453 657.371 5.24803 661.469 5.34568 665.263C3.07125 681.538 -2.22083 700.907 -2.46129 702.029C-16.6382 705.817 -81.4061 768.831 -81.4061 768.831C-81.4061 768.831 -78.8169 780.484 -53.8421 798.585L-52.4137 796.527L-47.0655 800.27L-48.4938 802.328C-42.0535 806.644 -34.3927 811.29 -25.1101 816.162C-15.8275 821.035 -7.6533 824.702 -0.442754 827.551L0.439565 825.207L6.55804 827.483L5.67572 829.827C34.903 840.49 45.82 835.615 45.82 835.615C45.82 835.615 60.4648 745.354 55.6914 732.554Z" fill="#213A8F" fill-opacity="0.06"/>
<path d="M24.4407 721.765C4.23738 711.16 -3.63314 703.597 -4.0508 703.066C-5.70518 701.574 -1.69314 695.257 -0.03876 696.75C-0.03876 696.75 8.92383 704.886 28.035 714.918C47.1463 724.95 57.9856 727.52 57.9856 727.52C60.1534 728.034 57.6349 734.822 55.3386 734.553C55.0656 734.409 44.917 732.514 24.4407 721.765ZM-4.08675 738.296C-6.27089 737.149 -53.7139 798.34 -53.7139 798.34L-48.2373 801.839C-48.2373 801.839 -1.90261 739.442 -4.08675 738.296ZM27.0372 754.634C29.2214 755.78 5.80387 829.582 5.80387 829.582L-0.186242 827.062C-0.186242 827.062 24.8531 753.487 27.0372 754.634ZM84.8295 671.737L91.7615 658.531C92.7885 656.575 95.1968 655.968 97.3809 657.114C99.5651 658.261 100.433 660.588 99.406 662.544L90.0349 680.396C88.8615 676.661 87.0299 673.516 84.8295 671.737ZM21.6359 644.18L30.8786 626.573C31.9056 624.616 34.3139 624.009 36.498 625.155C38.6822 626.302 39.55 628.629 38.5231 630.585L31.5911 643.791C29.0055 642.746 25.1038 642.881 21.6359 644.18Z" fill="#213A8F" fill-opacity="0.06"/>
</g>
<g clip-path="url(#clip9_189_694)">
<path d="M1749.29 3006.89L1705.03 2935.36C1703.75 2933.29 1701.31 2932.41 1698.87 2933.13L1698.63 2933.2C1687.26 2936.55 1667.79 2941.81 1651.03 2925.49C1636.84 2911.67 1639.23 2856.51 1642.05 2804.92C1643.9 2771.09 1645.82 2736.1 1643.75 2706.16C1640.53 2659.37 1633.88 2633.69 1633.6 2632.62C1633.13 2630.82 1631.88 2629.44 1630.2 2628.86C1628.52 2628.29 1626.6 2628.58 1624.97 2629.67L1603.63 2643.84C1601.18 2645.47 1599.9 2648.53 1600.5 2651.28C1600.54 2651.45 1604.29 2668.68 1605.11 2699.51C1605.79 2724.76 1604.56 2763.97 1595.79 2813.32C1571.74 2756.71 1549.9 2714.82 1539.74 2697.49C1538.84 2695.96 1537.3 2695.02 1535.53 2694.91C1533.76 2694.8 1531.94 2695.54 1530.57 2696.93L1510.25 2717.48C1510.23 2717.5 1509.63 2718.14 1509.24 2718.75C1501.62 2730.82 1492.18 2751.37 1480.22 2777.4C1468.68 2802.51 1454.31 2833.77 1437.2 2866.77C1433.94 2873.07 1435.44 2880.32 1440.69 2883.64L1446.42 2887.25C1452.03 2890.8 1459.87 2888.49 1463.89 2882.11L1530.63 2776.43C1541.02 2803.31 1552.81 2838.05 1560.44 2873.77C1579.16 2961.36 1607.5 2988.97 1630.1 3003.24C1682.87 3036.56 1735.6 3045.36 1737.82 3045.72C1740.26 3046.11 1742.85 3044.83 1744.32 3042.49L1748.17 3036.4C1754.12 3026.98 1754.55 3015.4 1749.29 3006.89ZM1613.23 2651.78L1623.58 2644.9C1625.76 2655.6 1629.52 2677.38 1631.67 2708.54C1633.68 2737.67 1631.79 2772.24 1629.96 2805.67C1628.13 2839.06 1626.45 2869.87 1628.49 2893.71C1625.64 2887.92 1622.83 2881.4 1620.07 2874.05C1614.74 2859.84 1609.37 2846.18 1604.05 2833.15C1624.52 2734.19 1616.26 2669.4 1613.23 2651.78ZM1454.05 2875.9C1453.92 2876.1 1453.67 2876.18 1453.49 2876.06L1447.76 2872.44C1447.6 2872.35 1447.57 2872.09 1447.68 2871.88C1451.07 2865.34 1454.34 2858.88 1457.52 2852.52L1465.6 2857.62L1454.05 2875.9ZM1472.66 2846.43L1463.4 2840.58C1473.91 2819.06 1483.12 2799.03 1491.01 2781.86C1499.78 2762.78 1507.17 2746.69 1513.3 2735.1C1516.29 2741.66 1520.51 2751.25 1525.32 2763.04L1472.66 2846.43ZM1737 3032.3C1723.81 3029.59 1680.03 3019.11 1637.17 2992.05C1616.33 2978.89 1590.12 2953.08 1572.28 2869.6C1557.99 2802.73 1529.45 2739.31 1521.63 2722.64L1532.76 2711.37C1543.23 2730.3 1575.41 2791.08 1608.73 2879.91C1622.01 2915.3 1638.76 2937.43 1658.52 2945.69C1673.48 2951.95 1687.29 2949.22 1696.77 2946.6L1738.92 3014.73C1741.68 3019.18 1741.45 3025.25 1738.33 3030.18L1737 3032.3L1737 3032.3Z" fill="#0ACF83" fill-opacity="0.03"/>
</g>
<g clip-path="url(#clip10_189_694)">
<path fill-rule="evenodd" clip-rule="evenodd" d="M257.151 3084.8L83.5382 3019.97C78.6914 3018.16 74.5752 3015 72.0951 3011.18C69.615 3007.37 68.9742 3003.21 70.3137 2999.62L118.891 2925.3C126.335 2914.82 136.131 2916.33 146.224 2920.1L158.34 2924.62C174.002 2903.71 201.228 2894.41 225.9 2903.62C250.571 2912.84 265.039 2937.7 263.156 2963.77L275.273 2968.29C285.365 2972.06 293.757 2977.34 292.504 2990.14L280.476 3078.1C279.137 3081.69 275.927 3084.41 271.552 3085.67C267.178 3086.92 261.997 3086.61 257.151 3084.8ZM223.374 2910.39C203.491 2902.96 181.344 2910.78 167.72 2928.13L253.781 2960.27C254.855 2938.24 243.262 2917.81 223.374 2910.39ZM283.366 2986.72C283.637 2985.71 283.635 2984.63 283.362 2983.54C283.088 2982.44 282.549 2981.36 281.775 2980.35C281.001 2979.34 280.009 2978.43 278.856 2977.67C277.703 2976.91 276.414 2976.31 275.064 2975.92L262.134 2971.09C261.469 2974.67 260.51 2978.18 259.26 2981.57C258.925 2982.47 258.123 2983.15 257.029 2983.46C255.936 2983.78 254.64 2983.7 253.429 2983.25C252.217 2982.8 251.188 2982.01 250.568 2981.05C249.948 2980.1 249.788 2979.06 250.123 2978.16C251.394 2974.77 252.354 2971.27 252.997 2967.68L163.449 2934.24C161.583 2937.37 160.012 2940.64 158.748 2944.04C158.413 2944.93 157.61 2945.61 156.517 2945.93C155.423 2946.24 154.128 2946.17 152.916 2945.71C151.705 2945.26 150.675 2944.47 150.055 2943.52C149.435 2942.56 149.275 2941.52 149.61 2940.63C150.896 2937.24 152.466 2933.97 154.312 2930.82L141.378 2925.99C140.099 2925.41 138.735 2925.01 137.366 2924.83C135.997 2924.65 134.651 2924.69 133.407 2924.94C132.162 2925.2 131.046 2925.66 130.122 2926.31C129.198 2926.96 128.487 2927.77 128.029 2928.71L79.4512 3003.03C78.7815 3004.83 79.1019 3006.9 80.3419 3008.81C81.582 3010.72 83.6401 3012.3 86.0635 3013.21L259.676 3078.04C262.099 3078.95 264.69 3079.1 266.877 3078.47C269.064 3077.85 270.669 3076.49 271.339 3074.69L283.366 2986.72Z" fill="#5C2483" fill-opacity="0.03"/>
</g>
<g clip-path="url(#clip11_189_694)">
<path fill-rule="evenodd" clip-rule="evenodd" d="M1665.81 4308.08L1453.02 4228.62C1447.08 4226.4 1442.17 4222.18 1439.36 4216.89C1436.55 4211.6 1436.07 4205.67 1438.04 4200.41L1504.9 4089.7C1515.07 4074.05 1527.25 4075.44 1539.62 4080.06L1554.47 4085.6C1575.79 4054.29 1610.7 4038.77 1640.94 4050.06C1671.17 4061.35 1687.36 4095.96 1682.94 4133.58L1697.79 4139.12C1710.16 4143.74 1720.27 4150.68 1717.68 4169.17L1695.62 4296.6C1693.65 4301.86 1689.41 4306.03 1683.82 4308.18C1678.23 4310.34 1671.75 4310.3 1665.81 4308.08ZM1637.23 4059.98C1612.86 4050.88 1584.44 4063.88 1565.97 4089.9L1671.45 4129.29C1674.54 4097.53 1661.61 4069.08 1637.23 4059.98ZM1706.49 4164.99C1706.9 4163.51 1706.99 4161.95 1706.73 4160.4C1706.48 4158.85 1705.88 4157.33 1704.99 4155.95C1704.1 4154.56 1702.93 4153.33 1701.54 4152.33C1700.15 4151.32 1698.58 4150.57 1696.92 4150.11L1681.07 4144.19C1679.95 4149.4 1678.47 4154.51 1676.63 4159.49C1676.14 4160.81 1675.08 4161.85 1673.68 4162.39C1672.29 4162.92 1670.67 4162.92 1669.18 4162.36C1667.7 4161.81 1666.47 4160.75 1665.77 4159.43C1665.06 4158.11 1664.94 4156.62 1665.44 4155.31C1667.3 4150.33 1668.78 4145.22 1669.87 4140.01L1560.12 4099.02C1557.53 4103.67 1555.3 4108.51 1553.44 4113.49C1552.95 4114.8 1551.89 4115.84 1550.49 4116.38C1549.1 4116.92 1547.48 4116.91 1545.99 4116.36C1544.51 4115.8 1543.28 4114.75 1542.58 4113.42C1541.87 4112.1 1541.75 4110.62 1542.25 4109.3C1544.13 4104.34 1546.36 4099.5 1548.92 4094.84L1533.07 4088.92C1531.51 4088.18 1529.83 4087.72 1528.13 4087.57C1526.42 4087.42 1524.73 4087.58 1523.15 4088.04C1521.57 4088.5 1520.13 4089.26 1518.92 4090.26C1517.71 4091.27 1516.75 4092.5 1516.1 4093.89L1449.24 4204.59C1448.25 4207.22 1448.49 4210.19 1449.9 4212.83C1451.3 4215.48 1453.76 4217.59 1456.73 4218.69L1669.51 4298.16C1672.48 4299.27 1675.72 4299.29 1678.52 4298.21C1681.31 4297.13 1683.44 4295.05 1684.42 4292.42L1706.49 4164.99Z" fill="#ED1A3B" fill-opacity="0.05"/>
</g>
<defs>
<clipPath id="clip0_189_694">
<rect width="165.752" height="188.498" fill="white" transform="translate(1192 680.501) rotate(-21.7799)"/>
</clipPath>
<clipPath id="clip1_189_694">
<rect width="121.996" height="129.039" fill="white" transform="translate(1556.15 4837) rotate(38.401)"/>
</clipPath>
<clipPath id="clip2_189_694">
<rect width="342.259" height="303.846" fill="white" transform="translate(1099.16 3261.78) rotate(23.0891)"/>
</clipPath>
<clipPath id="clip3_189_694">
<rect width="238.622" height="192.506" fill="white" transform="translate(-26.5059 3621) rotate(23.0891)"/>
</clipPath>
<clipPath id="clip4_189_694">
<rect width="387.443" height="258.334" fill="white" transform="translate(188.377 88) rotate(20.478)"/>
</clipPath>
<clipPath id="clip5_189_694">
<rect width="425.145" height="283.472" fill="white" transform="translate(535.172 1180) rotate(20.478)"/>
</clipPath>
<clipPath id="clip6_189_694">
<rect width="216.951" height="252.457" fill="white" transform="translate(-111 4291.29) rotate(-30.2493)"/>
</clipPath>
<clipPath id="clip7_189_694">
<rect width="248.068" height="222.37" fill="white" transform="translate(1602.35 974) rotate(27.696)"/>
</clipPath>
<clipPath id="clip8_189_694">
<rect width="222.009" height="198.861" fill="white" transform="translate(-33.5723 586.814) rotate(27.696)"/>
</clipPath>
<clipPath id="clip9_189_694">
<rect width="371.621" height="422.618" fill="white" transform="translate(1612.64 2555) rotate(32.2705)"/>
</clipPath>
<clipPath id="clip10_189_694">
<rect width="224.339" height="166.016" fill="white" transform="translate(122.08 2861) rotate(20.478)"/>
</clipPath>
<clipPath id="clip11_189_694">
<rect width="274.956" height="243.608" fill="white" transform="translate(1514 3997) rotate(20.478)"/>
</clipPath>
</defs>
</svg>
