<svg width="1196" height="563" viewBox="0 0 1196 563" fill="none" xmlns="http://www.w3.org/2000/svg">
<path d="M339.191 0.90918L339.302 1.24636L494.369 429.523V23.2193H430.544V19.2856H650.324C755.94 19.2856 829.645 74.1337 829.645 152.753C829.645 210.074 779.139 257.729 704.048 271.272L690.229 273.015L704.104 274.476C749.669 279.758 785.855 293.92 811.496 316.623L811.663 316.792L926.326 0.90918H930.211L930.321 1.24636L1127.68 546.244H1196V550.178H978.551V546.244H1042.6L977.663 367.032H845.962V367.144L846.683 369.224C851.9 385.015 854.564 401.593 854.397 418.284V485.495C854.397 520.056 869.438 555.067 898.243 555.067C915.115 555.067 928.601 549.054 944.696 534.161L946.972 536.297C929.545 554.954 908.399 562.878 876.708 562.878C852.844 562.878 832.308 557.034 815.88 545.569L812.772 543.322C791.127 526.687 777.03 499.6 770.981 462.679L769.982 456.722L768.983 447.731L768.872 446.157L732.575 546.188H784.079V550.121H676.298V546.188H728.357L768.206 436.379V436.098C767.791 429.624 767.55 423.141 767.484 416.654V368.662C767.484 309.711 724.195 275.937 648.714 275.937H574.511V546.244H638.78V550.178H387.531V546.244H451.578L386.643 367.032H206.546L142.277 544.277L144.941 543.827C229.356 529.104 268.151 463.859 268.706 395.187H272.591V550.178H-136L167.307 23.2193H45.374C-55.747 23.2193 -101.479 102.288 -102.2 181.133H-106.03V19.2856H262.157L259.937 23.2193L-41.1505 546.244H117.247C121.187 546.244 125.072 546.075 129.013 545.738L133.009 545.401L138.003 544.839L335.251 0.90918H339.135H339.191ZM887.698 118.642L814.826 319.602L815.214 319.995L818.933 323.704C829.644 334.775 838.192 347.869 844.019 362.143L844.408 363.098H976.22L887.698 118.642ZM296.733 118.642L207.989 363.098H385.256L296.733 118.642ZM631.177 23.2193H574.567V272.003H648.714C723.806 272.003 746.783 244.298 746.783 153.596C746.783 68.3455 706.823 23.2193 631.177 23.2193Z" fill="#262424" fill-opacity="0.04"/>
</svg>
